<svg width="512" height="512" viewBox="0 0 512 512" fill="none" xmlns="http://www.w3.org/2000/svg">
<g clip-path="url(#clip0)">
<path d="M168.326 437.929L184.738 421.516C190.202 416.052 197.465 412.761 205.175 412.255L226.235 410.874C246.614 409.537 266.29 402.9 283.315 391.619C300.339 380.339 314.122 364.806 323.296 346.56L338.46 316.404L281.64 271.5L159.668 361.895L162.035 422.497L168.326 437.929Z" fill="#FFCD85"/>
<path d="M168.326 427.929L184.738 411.516C190.202 406.052 197.465 402.761 205.175 402.255L226.235 400.874C246.614 399.537 266.29 392.9 283.315 381.619C300.339 370.339 314.122 354.806 323.296 336.56L338.46 306.404L281.64 261.5L159.668 351.895L162.035 412.497L168.326 427.929Z" fill="#FFCD85"/>
<path d="M323.296 326.56C314.122 344.806 300.339 360.339 283.315 371.619C266.29 382.9 246.614 389.537 226.235 390.874L205.176 392.255C197.465 392.761 190.202 396.052 184.738 401.516L162.035 422.497L168.326 437.929L184.738 421.516C190.202 416.052 197.465 412.761 205.176 412.255L226.235 410.874C246.614 409.537 266.29 402.9 283.315 391.619C300.339 380.339 314.122 364.806 323.296 346.56L338.46 316.404L331.263 310.717L323.296 326.56Z" fill="#FFB74E"/>
<path d="M184.554 343.452C179.308 347.34 181.953 355.784 188.483 355.813C188.54 355.813 188.598 355.813 188.655 355.813H314.205C315.408 355.814 316.59 355.499 317.633 354.899C318.675 354.299 319.541 353.435 320.145 352.394C321.247 350.487 322.297 348.542 323.296 346.56L335.95 321.396C336.659 319.986 336.86 318.375 336.518 316.834C336.177 315.294 335.314 313.918 334.076 312.94L285.756 274.753C284.574 273.819 283.118 273.3 281.613 273.277C280.107 273.254 278.636 273.727 277.426 274.623L184.554 343.452Z" fill="#FFB74E"/>
<path d="M323.211 7.5H188.655C167.422 7.5 150.21 24.7124 150.21 45.945V307.368C150.21 328.601 167.422 345.813 188.655 345.813H323.211C344.444 345.813 361.656 328.601 361.656 307.368V45.945C361.656 24.7124 344.444 7.5 323.211 7.5Z" fill="#676E87"/>
<path d="M323.211 7.5H303.211C308.26 7.5 313.259 8.4944 317.923 10.4264C322.588 12.3585 326.826 15.1903 330.396 18.7602C333.966 22.3301 336.798 26.5682 338.73 31.2325C340.662 35.8969 341.656 40.8961 341.656 45.9447V307.369C341.656 312.417 340.662 317.417 338.73 322.081C336.798 326.745 333.966 330.983 330.396 334.553C326.826 338.123 322.588 340.955 317.923 342.887C313.259 344.819 308.26 345.813 303.211 345.813H323.211C328.26 345.813 333.259 344.819 337.923 342.887C342.588 340.955 346.826 338.123 350.396 334.553C353.966 330.983 356.798 326.745 358.73 322.081C360.662 317.416 361.656 312.417 361.656 307.369V45.9447C361.656 35.7485 357.606 25.97 350.396 18.7602C343.186 11.5504 333.407 7.5 323.211 7.5V7.5Z" fill="#595F74"/>
<path d="M361.656 61.796H150.21V284.994H361.656V61.796Z" fill="#9FFFDD" fill-opacity="0.5"/>
<path fill-rule="evenodd" clip-rule="evenodd" d="M207.429 192.672C209.882 192.69 212.338 192.678 214.791 192.672C221.18 192.657 222.461 202.514 212.232 201.84L212.182 198.434L207.061 198.491L207.105 206.57C210.883 206.805 216.996 207.086 219.735 205.611C226.844 201.783 226.454 192.177 219.932 188.84C216.829 187.247 211.199 187.841 207.407 187.831L207.429 192.672Z" fill="white"/>
<path fill-rule="evenodd" clip-rule="evenodd" d="M228.022 197.305C228.201 197.97 232.019 201.818 232.258 201.92C234.013 201.83 234.192 201.845 234.597 201.881C235.043 201.92 235.355 202.791 237.804 206.622H243.236C242.39 204.633 241.134 203.015 240.38 200.933C241.271 199.253 242.981 198.623 243.224 195.701C243.672 190.239 240.395 187.828 235.243 187.833C232.715 187.833 230.072 187.758 227.486 187.864V192.657C232.795 192.867 238.162 191.575 238.099 194.819C238.029 198.442 233.375 196.943 228.02 197.308" fill="white"/>
<path fill-rule="evenodd" clip-rule="evenodd" d="M262.951 206.582C263.368 206.108 270.603 188.699 270.65 187.838L265.143 187.864C264.032 189.954 262.924 193.602 261.954 196.006C261.869 196.163 261.763 196.306 261.637 196.433C260.99 194.888 258.759 188.09 257.641 187.877C256.577 187.674 254.423 187.839 253.25 187.849C253.244 189.335 258.844 203.743 259.877 206.599L262.951 206.582Z" fill="white"/>
<path fill-rule="evenodd" clip-rule="evenodd" d="M281.121 199.546C281.067 197.433 281.071 196.453 281.059 195.108L277.663 194.96L277.735 192.872L285.645 192.838L285.567 188.005L272.893 188.05L272.944 199.542L281.121 199.546Z" fill="white"/>
<path fill-rule="evenodd" clip-rule="evenodd" d="M251.295 187.894L246.858 187.848L246.856 206.479L251.294 206.48L251.295 187.894Z" fill="white"/>
<path fill-rule="evenodd" clip-rule="evenodd" d="M289.455 197.645C289.634 198.31 293.452 202.158 293.691 202.262C295.446 202.171 295.625 202.185 296.029 202.221C296.474 202.261 296.788 203.131 299.237 206.962H304.668C303.822 204.973 302.566 203.355 301.813 201.273C302.699 199.601 304.414 198.969 304.654 196.049C305.102 190.587 301.825 188.176 296.672 188.181C294.144 188.181 291.501 188.107 288.915 188.212V193.005C294.225 193.215 299.592 191.923 299.529 195.167C299.459 198.79 294.805 197.291 289.45 197.657" fill="white"/>
<path d="M285.637 202.671H272.813V206.202H285.637V202.671Z" fill="#0C7E7E"/>
<path d="M285.637 202.671H272.813V206.202H285.637V202.671Z" stroke="#0C7E7E" stroke-width="0.57" stroke-miterlimit="22.93"/>
<path fill-rule="evenodd" clip-rule="evenodd" d="M223.074 160.087L216.983 160.201C216.074 159.774 216.524 158.137 216.524 156.838C218.98 156.637 229.89 157.283 231.002 156.621C231.347 156.293 231.232 148.897 231.179 147.826C225.762 147.885 219.021 147.882 216.104 147.908C205.918 147.999 207.398 147.03 207.337 150.567L207.317 167.809C207.302 168.77 207.149 169.044 207.784 169.27C208.047 169.364 221.893 169.352 223.067 169.259L223.074 160.087Z" fill="white"/>
<path fill-rule="evenodd" clip-rule="evenodd" d="M266.187 177.166C265.971 176.038 262.821 173.002 261.885 171.904C259.271 168.832 259.868 171.09 256.789 172.553C251.817 174.915 243.94 171.498 244.573 163.905C244.814 161.003 246.445 161.395 242.299 155.989L239.858 152.612C238.963 153.098 238.415 154.265 237.841 155.098C237.287 156.037 236.798 157.013 236.377 158.017C228.989 175.068 251.992 192.411 266.187 177.166Z" fill="#0C7E7E"/>
<path d="M266.187 177.166C265.971 176.038 262.821 173.002 261.885 171.904C259.271 168.832 259.868 171.09 256.789 172.553C251.817 174.915 243.94 171.498 244.573 163.905C244.814 161.003 246.445 161.395 242.299 155.989L239.858 152.612C238.963 153.098 238.415 154.265 237.841 155.098C237.287 156.037 236.798 157.013 236.377 158.017C228.989 175.068 251.992 192.411 266.187 177.166Z" stroke="#0C7E7E" stroke-width="0.57" stroke-miterlimit="22.93"/>
<path fill-rule="evenodd" clip-rule="evenodd" d="M285.489 156.775C300.853 158.178 297.933 172.11 286.167 173.589C286.262 175.827 292.926 179.023 295.201 179.658C297.189 180.212 297.969 179.397 299.067 178.541C307.592 170.081 307.278 157.911 298.181 150.985C293.819 147.659 285.355 154.481 285.489 156.775Z" fill="#0C7E7E"/>
<path d="M285.489 156.775C300.853 158.178 297.933 172.11 286.167 173.589C286.262 175.827 292.926 179.023 295.201 179.658C297.189 180.212 297.969 179.397 299.067 178.541C307.592 170.081 307.278 157.911 298.181 150.985C293.819 147.659 285.355 154.481 285.489 156.775Z" stroke="#0C7E7E" stroke-width="0.57" stroke-miterlimit="22.93"/>
<path fill-rule="evenodd" clip-rule="evenodd" d="M290.187 182.599C289.936 181.916 287.501 180.572 286.253 179.562C275.937 171.202 275.3 157.459 286.056 149.06C286.4 148.791 288.019 147.828 288.114 147.658C271.073 145.256 261.79 167.9 275.437 178.731C279.063 181.608 286.299 183.938 290.187 182.6" fill="white"/>
<path fill-rule="evenodd" clip-rule="evenodd" d="M207.034 181.863L231.143 181.824C231.21 178.176 230.995 175.241 230.829 173.051C228.467 172.904 208.046 172.864 207 173.175L207.034 181.863Z" fill="#0C7E7E"/>
<path d="M207.034 181.863L231.143 181.824C231.21 178.176 230.995 175.241 230.829 173.051C228.467 172.904 208.046 172.864 207 173.175L207.034 181.863Z" stroke="#0C7E7E" stroke-width="0.57" stroke-miterlimit="22.93"/>
<path fill-rule="evenodd" clip-rule="evenodd" d="M246.901 148.169C247.071 149.353 251.417 155.276 252.107 156.475C256.442 156.9 255.669 156.788 259.437 159.134C260.315 158.575 263.498 155.006 264.077 154.305C265.473 152.615 266.915 151.819 262.706 149.299C258.622 146.849 251.829 146.176 246.901 148.169Z" fill="white"/>
<path d="M361.656 61.796H341.656V284.994H361.656V61.796Z" fill="#8CD0FF"/>
<path d="M169.092 243.048C165.756 237.292 164.699 230.495 166.128 223.998L176.575 176.49C181.829 152.593 174.305 129.933 150.21 128.655V307.369C150.21 312.417 151.205 317.416 153.137 322.081C155.069 326.745 157.9 330.983 161.47 334.553C165.04 338.123 169.278 340.955 173.943 342.887C178.607 344.819 183.606 345.813 188.655 345.813H195.849L199.679 331.336C203.696 316.148 203.698 300.177 199.684 284.988C197.639 277.248 184.561 269.748 180.478 262.7L169.092 243.048Z" fill="#595F74"/>
<path d="M190.478 262.7L179.092 243.048C175.756 237.292 174.699 230.495 176.128 223.998L186.575 176.49C187.802 170.907 187.801 165.125 186.571 159.543C185.342 153.961 182.913 148.713 179.454 144.163C175.995 139.613 171.588 135.869 166.538 133.192C161.489 130.514 155.917 128.966 150.21 128.655V284.994H199.659C197.605 277.187 194.518 269.689 190.478 262.7V262.7Z" fill="#8CD0FF"/>
<path d="M180.478 366.119L189.679 331.336C195.814 308.142 192.505 283.46 180.478 262.7L169.091 243.048C165.756 237.292 164.699 230.495 166.128 223.998L176.575 176.489C177.841 170.73 177.8 164.76 176.453 159.019C175.107 153.278 172.49 147.912 168.795 143.316C165.1 138.721 160.421 135.012 155.103 132.464C149.785 129.916 143.963 128.593 138.066 128.593C136.905 128.593 135.773 128.959 134.831 129.638C133.889 130.317 133.184 131.275 132.817 132.377L96.3788 241.69C95.006 245.809 94.3062 250.122 94.3062 254.463V293.979C94.3062 302.794 91.4223 311.367 86.0946 318.39L73.9443 334.407L162.035 422.497L180.478 366.119ZM345.134 121.487C342.65 119.112 340.667 116.262 339.305 113.107C337.944 109.951 337.23 106.554 337.206 103.117C337.183 99.6797 337.851 96.2731 339.169 93.0992C340.488 89.9253 342.432 87.0488 344.884 84.6405L354.069 75.6204C358.822 70.9523 365.205 68.3168 371.868 68.2715C378.53 68.2262 384.948 70.7747 389.765 75.3777V75.3777C392.249 77.7524 394.232 80.6022 395.594 83.7578C396.955 86.9135 397.669 90.3107 397.693 93.7477C397.716 97.1846 397.048 100.591 395.73 103.765C394.411 106.939 392.467 109.816 390.015 112.224L380.83 121.244C376.077 125.912 369.694 128.548 363.031 128.593C356.369 128.638 349.951 126.09 345.134 121.487V121.487Z" fill="#FFCD85"/>
<path d="M389.765 75.3777V75.3776C386.784 72.5263 383.159 70.4366 379.198 69.286C375.238 68.1354 371.057 67.958 367.013 68.7688C371.809 69.7057 376.234 71.9995 379.765 75.3776V75.3777C382.249 77.7524 384.232 80.6022 385.594 83.7579C386.955 86.9136 387.669 90.3108 387.693 93.7477C387.716 97.1847 387.048 100.591 385.73 103.765C384.411 106.939 382.467 109.816 380.015 112.224L370.83 121.244C367.277 124.743 362.777 127.124 357.886 128.096C361.979 128.909 366.209 128.71 370.208 127.516C374.207 126.322 377.853 124.169 380.83 121.244L390.015 112.224C392.467 109.816 394.411 106.939 395.73 103.765C397.048 100.591 397.716 97.1847 397.693 93.7477C397.669 90.3108 396.955 86.9136 395.594 83.7579C394.232 80.6022 392.249 77.7524 389.765 75.3777V75.3777Z" fill="#FFC166"/>
<path d="M340.307 181.615C337.822 179.24 335.84 176.391 334.478 173.235C333.116 170.079 332.402 166.682 332.378 163.245C332.355 159.808 333.023 156.401 334.342 153.227C335.66 150.054 337.604 147.177 340.056 144.769L349.241 135.749C353.994 131.081 360.378 128.445 367.04 128.4C373.702 128.354 380.12 130.903 384.937 135.506C387.422 137.881 389.404 140.73 390.766 143.886C392.128 147.042 392.841 150.439 392.865 153.876C392.888 157.313 392.221 160.72 390.902 163.893C389.583 167.067 387.64 169.944 385.187 172.352L376.002 181.372C371.249 186.04 364.866 188.676 358.204 188.721C351.541 188.766 345.123 186.218 340.307 181.615V181.615Z" fill="#FFCD85"/>
<path d="M384.937 135.506H384.937C381.956 132.655 378.331 130.565 374.37 129.414C370.409 128.264 366.229 128.086 362.185 128.897C366.981 129.834 371.406 132.128 374.937 135.506H374.937C377.422 137.881 379.404 140.731 380.766 143.886C382.128 147.042 382.841 150.439 382.865 153.876C382.888 157.313 382.221 160.72 380.902 163.894C379.583 167.068 377.64 169.944 375.187 172.352L366.002 181.372C362.449 184.871 357.949 187.253 353.058 188.224C357.151 189.037 361.381 188.838 365.38 187.644C369.379 186.45 373.025 184.297 376.002 181.372L385.187 172.352C387.64 169.944 389.583 167.068 390.902 163.894C392.221 160.72 392.888 157.313 392.865 153.876C392.841 150.439 392.128 147.042 390.766 143.886C389.404 140.731 387.422 137.881 384.937 135.506V135.506Z" fill="#FFC166"/>
<path d="M338.111 241.465C335.627 239.091 333.644 236.241 332.282 233.085C330.921 229.929 330.207 226.532 330.183 223.095C330.16 219.658 330.827 216.252 332.146 213.078C333.465 209.904 335.409 207.027 337.861 204.619L347.046 195.599C351.799 190.931 358.182 188.295 364.844 188.25C371.507 188.205 377.925 190.753 382.742 195.356V195.356C385.226 197.731 387.209 200.581 388.57 203.736C389.932 206.892 390.646 210.289 390.67 213.726C390.693 217.163 390.025 220.57 388.707 223.744C387.388 226.918 385.444 229.794 382.992 232.202L373.807 241.222C369.054 245.891 362.671 248.526 356.008 248.571C349.346 248.617 342.928 246.068 338.111 241.465V241.465Z" fill="#FFCD85"/>
<path d="M382.741 195.356C379.761 192.505 376.136 190.415 372.175 189.264C368.214 188.114 364.034 187.936 359.99 188.747C364.785 189.684 369.211 191.978 372.741 195.356C375.226 197.731 377.209 200.581 378.57 203.736C379.932 206.892 380.646 210.289 380.67 213.726C380.693 217.163 380.025 220.57 378.707 223.744C377.388 226.918 375.444 229.794 372.992 232.202L363.807 241.222C360.254 244.721 355.754 247.103 350.863 248.074C354.956 248.887 359.186 248.688 363.185 247.494C367.184 246.3 370.83 244.147 373.807 241.222L382.992 232.202C385.444 229.794 387.388 226.918 388.707 223.744C390.025 220.57 390.693 217.163 390.67 213.726C390.646 210.289 389.932 206.892 388.57 203.736C387.208 200.581 385.226 197.731 382.741 195.356V195.356Z" fill="#FFC166"/>
<path d="M338.111 300.951C335.627 298.577 333.644 295.727 332.282 292.571C330.921 289.415 330.207 286.018 330.183 282.581C330.16 279.144 330.827 275.738 332.146 272.564C333.465 269.39 335.409 266.513 337.861 264.105L347.046 255.085C351.799 250.417 358.182 247.781 364.844 247.736C371.507 247.691 377.925 250.239 382.742 254.842V254.842C385.226 257.217 387.209 260.067 388.57 263.222C389.932 266.378 390.646 269.775 390.67 273.212C390.693 276.649 390.025 280.056 388.707 283.23C387.388 286.404 385.444 289.28 382.992 291.688L373.807 300.708C369.054 305.377 362.671 308.012 356.008 308.057C349.346 308.103 342.928 305.554 338.111 300.951V300.951Z" fill="#FFCD85"/>
<path d="M382.741 254.842C379.761 251.991 376.136 249.901 372.175 248.751C368.214 247.6 364.034 247.423 359.99 248.233C364.785 249.17 369.211 251.464 372.741 254.842V254.842C375.226 257.217 377.209 260.067 378.57 263.222C379.932 266.378 380.646 269.775 380.67 273.212C380.693 276.649 380.025 280.056 378.707 283.23C377.388 286.404 375.444 289.28 372.992 291.688L363.807 300.709C360.254 304.207 355.754 306.589 350.863 307.56C354.956 308.373 359.186 308.174 363.185 306.98C367.184 305.786 370.83 303.633 373.807 300.709L382.992 291.688C385.444 289.28 387.388 286.404 388.707 283.23C390.025 280.056 390.693 276.649 390.67 273.212C390.646 269.775 389.932 266.378 388.57 263.222C387.208 260.067 385.226 257.217 382.741 254.842V254.842Z" fill="#FFB74E"/>
<path d="M6.47715 385.275C5.43577 384.142 4.8699 382.651 4.89658 381.112C4.92326 379.573 5.54045 378.103 6.6205 377.006L50.6341 332.31C53.4471 329.497 57.2624 327.916 61.2407 327.916C65.2189 327.916 69.0342 329.497 71.8473 332.31L174.287 434.749C175.68 436.142 176.785 437.796 177.539 439.616C178.292 441.436 178.68 443.386 178.68 445.356C178.68 447.326 178.292 449.276 177.539 451.096C176.785 452.916 175.68 454.57 174.287 455.963L125.013 505.077C124.441 505.648 123.759 506.097 123.008 506.397C122.258 506.698 121.454 506.844 120.646 506.826C119.837 506.808 119.041 506.627 118.304 506.294C117.568 505.961 116.906 505.482 116.359 504.887L6.47715 385.275Z" fill="#00713D"/>
<path d="M400.365 153.825C400.35 149.381 399.434 144.986 397.673 140.905C395.912 136.824 393.342 133.143 390.118 130.083C388.825 128.85 387.437 127.721 385.966 126.706C386.005 126.668 386.046 126.634 386.085 126.595L395.27 117.575C400.135 112.784 403.404 106.61 404.632 99.893C405.86 93.1763 404.987 86.2443 402.132 80.0419C399.277 73.8395 394.579 68.6684 388.677 65.2335C382.776 61.7986 375.96 60.2669 369.156 60.8473V45.9448C369.142 33.7637 364.297 22.0855 355.684 13.4722C347.071 4.85885 335.392 0.0138107 323.211 0L188.655 0C176.474 0.0138186 164.796 4.85886 156.182 13.4722C147.569 22.0855 142.724 33.7637 142.71 45.9448V121.33C141.177 121.18 139.63 121.09 138.07 121.09C135.334 121.091 132.667 121.953 130.448 123.554C128.229 125.154 126.57 127.412 125.705 130.008L89.2632 239.323C87.6375 244.204 86.8092 249.315 86.8101 254.46V293.98C86.7951 301.156 84.4454 308.133 80.1157 313.856L72.7283 323.59C68.4271 321.022 63.3905 319.967 58.4201 320.591C53.4497 321.216 48.8311 323.485 45.2993 327.038L23.2942 349.308C22.3268 349.912 21.5143 350.735 20.9215 351.709L2.165 370.691C1.47273 371.392 0.925243 372.222 0.553782 373.134C0.182321 374.046 -0.00583485 375.023 5.7957e-05 376.008C0.00595076 376.993 0.205777 377.967 0.588126 378.874C0.970475 379.782 1.52786 380.606 2.22846 381.298C2.92905 381.99 3.75914 382.538 4.67133 382.909C5.58351 383.281 6.55993 383.469 7.54483 383.463C8.52973 383.457 9.50383 383.257 10.4115 382.875C11.3192 382.492 12.1427 381.935 12.8349 381.234L27.471 366.422L140.346 479.297L120.446 499.197C119.749 499.893 119.195 500.72 118.817 501.63C118.439 502.54 118.244 503.516 118.244 504.502C118.243 505.487 118.437 506.463 118.814 507.374C119.191 508.285 119.744 509.112 120.441 509.809C121.137 510.506 121.965 511.059 122.876 511.435C123.786 511.812 124.762 512.006 125.748 512.006C126.733 512.005 127.709 511.81 128.619 511.432C129.53 511.054 130.357 510.501 131.053 509.803L156.253 484.603L156.256 484.601L156.258 484.598L179.59 461.266C183.131 457.732 185.39 453.116 186.009 448.152C186.627 443.187 185.569 438.158 183.003 433.863L190.048 426.818C194.222 422.637 199.778 420.122 205.674 419.744L226.731 418.354C247.812 416.923 268.187 410.181 285.961 398.757C303.734 387.333 318.328 371.597 328.384 353.014C338.639 351.837 348.201 347.245 355.532 339.978C362.863 332.71 367.538 323.189 368.806 312.945C372.623 311.308 376.102 308.973 379.062 306.06L388.248 297.04C391.417 293.927 393.928 290.21 395.632 286.108C397.337 282.006 398.2 277.603 398.169 273.161C398.139 268.72 397.217 264.329 395.456 260.251C393.696 256.172 391.135 252.489 387.923 249.42C385.907 247.491 383.658 245.82 381.229 244.446L388.247 237.553C391.416 234.441 393.928 230.723 395.632 226.621C397.337 222.519 398.2 218.117 398.169 213.675C398.139 209.233 397.217 204.842 395.456 200.764C393.696 196.686 391.135 193.003 387.923 189.934C386.225 188.312 384.361 186.871 382.364 185.637L390.442 177.703C393.624 174.6 396.144 170.884 397.849 166.78C399.554 162.676 400.41 158.269 400.365 153.825V153.825ZM359.324 80.9717C362.759 77.6003 367.392 75.7313 372.205 75.7757C377.018 75.82 381.616 77.774 384.989 81.208C388.361 84.6421 390.232 89.275 390.189 94.0878C390.146 98.9007 388.193 103.5 384.76 106.873L375.575 115.893C372.88 118.549 369.42 120.294 365.682 120.882C364.778 120.924 363.877 121.008 362.979 121.124C358.259 121.153 353.716 119.337 350.316 116.064V116.065C348.558 114.385 347.155 112.368 346.191 110.135C345.228 107.902 344.723 105.498 344.706 103.066C344.69 100.634 345.162 98.2232 346.095 95.9773C347.028 93.7313 348.403 91.6958 350.139 89.9917L359.324 80.9717ZM157.71 45.9448C157.719 37.7406 160.983 29.8751 166.784 24.0738C172.585 18.2725 180.451 15.0093 188.655 15H323.211C331.416 15.0093 339.281 18.2725 345.082 24.0738C350.884 29.8751 354.147 37.7406 354.156 45.9448V54.2959H157.71V45.9448ZM157.71 69.2959H349.855C349.504 69.6132 349.155 69.9346 348.814 70.2695L339.629 79.2895C336.46 82.4019 333.948 86.1194 332.244 90.2213C330.539 94.3232 329.676 98.7258 329.707 103.168C329.737 107.61 330.659 112 332.42 116.078C334.18 120.157 336.741 123.84 339.953 126.909V126.909C341.246 128.142 342.634 129.272 344.105 130.286C344.066 130.324 344.024 130.359 343.985 130.397L334.801 139.418C331.632 142.53 329.12 146.248 327.416 150.35C325.711 154.452 324.848 158.855 324.878 163.296C324.909 167.738 325.831 172.129 327.592 176.207C329.352 180.286 331.914 183.969 335.125 187.038C336.824 188.66 338.687 190.1 340.685 191.335L332.606 199.268C329.437 202.38 326.925 206.098 325.221 210.2C323.516 214.302 322.653 218.704 322.684 223.146C322.714 227.588 323.636 231.979 325.397 236.057C327.157 240.135 329.718 243.818 332.93 246.887V246.888C334.946 248.817 337.195 250.488 339.625 251.861L332.606 258.754C327.449 263.783 324.089 270.368 323.042 277.494H195.311C193.175 271.039 190.379 264.821 186.969 258.939L175.583 239.296C173.184 235.161 172.425 230.277 173.455 225.61L183.895 178.101C186.19 167.646 184.845 156.721 180.084 147.135C175.322 137.549 167.428 129.877 157.71 125.39V69.2959ZM168.984 450.659L150.952 468.691L38.014 355.752L55.938 337.613C56.6344 336.916 57.4611 336.364 58.371 335.987C59.2809 335.61 60.2561 335.416 61.241 335.416C62.2259 335.416 63.2011 335.61 64.111 335.987C65.0209 336.364 65.8476 336.916 66.544 337.613L168.984 440.053C169.68 440.749 170.233 441.576 170.61 442.486C170.987 443.396 171.181 444.371 171.181 445.356C171.181 446.341 170.987 447.316 170.61 448.226C170.233 449.136 169.68 449.963 168.984 450.659H168.984ZM225.747 403.386L204.695 404.775C195.164 405.39 186.184 409.458 179.437 416.217L172.899 422.755L83.8679 333.724L92.063 322.925C98.3677 314.591 101.789 304.431 101.81 293.98V254.46C101.81 250.926 102.379 247.415 103.495 244.062L139.479 136.121C141.744 136.218 143.994 136.556 146.188 137.129C147.247 137.804 148.458 138.2 149.711 138.281C156.789 141.06 162.644 146.272 166.224 152.98C169.805 159.688 170.876 167.453 169.245 174.88L158.806 222.387C156.966 230.716 158.321 239.433 162.601 246.811L173.991 266.46C177.624 272.732 180.426 279.449 182.325 286.443C182.384 286.741 182.461 287.034 182.556 287.322C186.143 301.132 186.1 315.634 182.43 329.422L173.23 364.202C172.721 366.125 172.997 368.171 173.997 369.891C174.997 371.61 176.639 372.862 178.562 373.371C180.485 373.879 182.531 373.603 184.251 372.603C185.97 371.603 187.222 369.961 187.731 368.038L191.626 353.313H310.795C301.486 367.696 288.952 379.71 274.189 388.402C259.426 397.094 242.839 402.224 225.747 403.386H225.747ZM323.211 338.313H195.593L196.931 333.256C200.469 319.963 201.169 306.075 198.986 292.494H324.234C326.245 298.738 330.053 304.251 335.182 308.342C340.31 312.432 346.531 314.92 353.066 315.493C351.276 322.041 347.385 327.821 341.992 331.944C336.598 336.066 330 338.304 323.211 338.313H323.211ZM383.17 273.263C383.195 275.696 382.726 278.109 381.793 280.356C380.859 282.604 379.479 284.638 377.737 286.337L368.552 295.357C366.288 297.585 363.479 299.179 360.405 299.981C360.032 300.043 359.664 300.133 359.304 300.25C356.453 300.808 353.508 300.671 350.721 299.849C347.934 299.027 345.386 297.545 343.294 295.529H343.293C341.535 293.849 340.132 291.832 339.168 289.599C338.205 287.366 337.7 284.962 337.683 282.53C337.667 280.098 338.139 277.688 339.072 275.442C340.005 273.196 341.381 271.16 343.116 269.456L352.301 260.436C354.581 258.192 357.414 256.591 360.513 255.795C361.357 255.674 362.197 255.511 363.032 255.325C365.559 255.051 368.114 255.31 370.534 256.085C372.955 256.86 375.185 258.134 377.083 259.824C378.98 261.514 380.502 263.583 381.551 265.898C382.599 268.213 383.151 270.722 383.17 273.263V273.263ZM383.17 213.777C383.195 216.211 382.726 218.624 381.792 220.871C380.859 223.118 379.479 225.152 377.737 226.851L368.552 235.872C366.264 238.123 363.42 239.726 360.31 240.519C359.455 240.643 358.606 240.805 357.761 240.996C354.012 241.392 350.233 240.612 346.947 238.765C343.661 236.917 341.031 234.093 339.421 230.684C337.812 227.274 337.303 223.449 337.965 219.738C338.627 216.026 340.427 212.613 343.116 209.97L352.301 200.95C354.777 198.508 357.903 196.828 361.306 196.113C362.094 196.034 362.879 195.921 363.66 195.785C366.142 195.602 368.634 195.931 370.983 196.75C373.332 197.57 375.488 198.863 377.317 200.55C379.146 202.237 380.61 204.281 381.616 206.556C382.623 208.832 383.152 211.289 383.17 213.777V213.777ZM379.933 167.001L370.748 176.021C368.274 178.46 365.153 180.139 361.753 180.856C360.961 180.935 360.172 181.05 359.386 181.186C356.849 181.379 354.299 181.034 351.904 180.174C349.509 179.314 347.323 177.957 345.488 176.193V176.193C343.73 174.513 342.327 172.496 341.363 170.263C340.4 168.03 339.894 165.626 339.878 163.194C339.861 160.762 340.334 158.351 341.267 156.105C342.2 153.86 343.576 151.824 345.311 150.12L354.496 141.1C357.181 138.453 360.624 136.711 364.346 136.115C365.246 136.074 366.144 135.99 367.038 135.876C367.097 135.875 367.155 135.868 367.213 135.868C370.819 135.872 374.342 136.948 377.334 138.961C380.326 140.973 382.652 143.83 384.016 147.168C385.379 150.506 385.719 154.174 384.992 157.706C384.265 161.237 382.504 164.473 379.933 167.001V167.001Z" fill="#313440"/>
</g>
<defs>
<clipPath id="clip0">
<rect width="512" height="512" fill="white"/>
</clipPath>
</defs>
</svg>
