<svg width="700" height="493" viewBox="0 0 700 493" fill="none" xmlns="http://www.w3.org/2000/svg">
<g clip-path="url(#clip0)">
<path d="M52.3478 171.799C52.0296 170.954 51.7895 170.082 51.6306 169.194C49.1277 153.79 37.3299 67.1849 102.867 38.1163C135.14 23.8003 171.717 0.178873 290.054 43.8427C429.719 95.3803 520.989 8.05267 542.505 8.05267C564.021 8.05267 612.79 -23.4425 670.165 38.1163C727.54 99.6751 684.509 174.118 684.509 174.118C684.509 174.118 657.255 244.267 665.862 280.057C674.468 315.847 684.509 344.479 681.64 355.931C678.771 367.384 677.337 444.691 630.002 461.87C582.668 479.049 598.446 476.186 487.998 470.459C377.551 464.733 320.176 480.481 297.226 489.07C274.275 497.66 239.85 494.797 178.172 453.28C116.493 411.764 102.15 424.648 70.5932 406.037C39.0368 387.427 -41.1308 284.495 26.1273 209.908C52.1255 181.076 52.9933 173.61 52.3478 171.799Z" fill="#DFFAE5" fill-opacity="0.6"/>
<path d="M140.268 137.863C152.183 137.863 161.841 128.223 161.841 116.332C161.841 104.44 152.183 94.8005 140.268 94.8005C128.354 94.8005 118.695 104.44 118.695 116.332C118.695 128.223 128.354 137.863 140.268 137.863Z" fill="white"/>
<path d="M163.699 130.891C171.811 130.891 178.387 124.328 178.387 116.232C178.387 108.135 171.811 101.572 163.699 101.572C155.587 101.572 149.011 108.135 149.011 116.232C149.011 124.328 155.587 130.891 163.699 130.891Z" fill="white"/>
<path d="M115.69 127.727C122.218 127.727 127.509 122.446 127.509 115.931C127.509 109.416 122.218 104.135 115.69 104.135C109.162 104.135 103.871 109.416 103.871 115.931C103.871 122.446 109.162 127.727 115.69 127.727Z" fill="white"/>
<path d="M563.418 103.727C575.333 103.727 584.991 94.0867 584.991 82.1953C584.991 70.3039 575.333 60.6641 563.418 60.6641C551.504 60.6641 541.845 70.3039 541.845 82.1953C541.845 94.0867 551.504 103.727 563.418 103.727Z" fill="white"/>
<path d="M586.849 96.7547C594.961 96.7547 601.537 90.1914 601.537 82.0951C601.537 73.9989 594.961 67.4355 586.849 67.4355C578.737 67.4355 572.161 73.9989 572.161 82.0951C572.161 90.1914 578.737 96.7547 586.849 96.7547Z" fill="white"/>
<path d="M538.84 93.5908C545.368 93.5908 550.659 88.3094 550.659 81.7944C550.659 75.2795 545.368 69.998 538.84 69.998C532.312 69.998 527.021 75.2795 527.021 81.7944C527.021 88.3094 532.312 93.5908 538.84 93.5908Z" fill="white"/>
<path d="M329.305 178.778C341.22 178.778 350.879 169.138 350.879 157.247C350.879 145.356 341.22 135.716 329.305 135.716C317.391 135.716 307.732 145.356 307.732 157.247C307.732 169.138 317.391 178.778 329.305 178.778Z" fill="white"/>
<path d="M352.729 171.806C360.841 171.806 367.417 165.243 367.417 157.147C367.417 149.05 360.841 142.487 352.729 142.487C344.617 142.487 338.041 149.05 338.041 157.147C338.041 165.243 344.617 171.806 352.729 171.806Z" fill="white"/>
<path d="M304.727 168.642C311.255 168.642 316.547 163.361 316.547 156.846C316.547 150.331 311.255 145.05 304.727 145.05C298.2 145.05 292.908 150.331 292.908 156.846C292.908 163.361 298.2 168.642 304.727 168.642Z" fill="white"/>
<path d="M16.8038 347.342C16.8038 347.342 30.4304 327.299 31.8648 324.436C33.2992 321.573 32.582 310.12 32.582 310.12H27.5617C27.5617 310.12 31.8648 297.952 44.057 297.952C56.2493 297.952 59.8353 303.678 61.2696 306.541C62.704 309.404 61.9868 310.836 61.9868 310.836H57.6837V322.289L78.4822 356.647H87.0885V412.48C87.0885 412.48 36.1679 385.995 16.8038 347.342Z" fill="#059A38" fill-opacity="0.75"/>
<path d="M64.8556 398.164H74.8963V383.848C74.8963 383.848 69.8759 375.974 64.8556 383.848V398.164Z" fill="white"/>
<path d="M67.9754 369.052C71.4729 369.052 74.3082 366.222 74.3082 362.732C74.3082 359.241 71.4729 356.411 67.9754 356.411C64.4779 356.411 61.6426 359.241 61.6426 362.732C61.6426 366.222 64.4779 369.052 67.9754 369.052Z" fill="#D0F4DA"/>
<path d="M20.9563 355.094C22.3175 354.137 24.0014 353.754 25.6437 354.027C27.2859 354.3 28.7543 355.208 29.731 356.553C30.7078 357.899 31.1143 359.574 30.8627 361.217C30.611 362.859 29.7215 364.337 28.3864 365.33" fill="#D0F4DA"/>
<path d="M45.3336 340.391C48.8312 340.391 51.6664 337.562 51.6664 334.071C51.6664 330.58 48.8312 327.75 45.3336 327.75C41.8361 327.75 39.0009 330.58 39.0009 334.071C39.0009 337.562 41.8361 340.391 45.3336 340.391Z" fill="#D0F4DA"/>
<path d="M34.8053 357.657C34.8361 356.021 35.4314 354.446 36.4907 353.197C37.4869 351.962 38.7336 350.952 40.149 350.233C41.5643 349.514 43.1162 349.102 44.7025 349.024C51.3724 348.845 54.2985 354.443 54.7073 356.733C55.3241 360.19 55.1879 377.599 55.1879 377.599L39.5746 377.513L34.6833 372.395L34.8053 357.657Z" fill="white"/>
<path d="M85.4533 334.543L87.0885 412.48C87.0885 412.48 116.651 423.489 129.116 426.116C141.581 428.743 170.584 445.256 170.584 445.256L170.096 334.908L85.4677 334.343" fill="#D0F4DA"/>
<path d="M84.8509 334.543L170.096 334.901L169.709 314.565H144.464C144.464 314.565 141.33 302.397 129.575 302.397C115.152 302.397 112.75 315.21 112.75 315.21L84.7792 314.916L84.8509 334.543Z" fill="#059A38" fill-opacity="0.75"/>
<path d="M108.941 346.104H93.866V362.424H108.941V346.104Z" fill="#059A38" fill-opacity="0.75"/>
<path d="M136.18 345.875H121.105V362.195H136.18V345.875Z" fill="#059A38" fill-opacity="0.75"/>
<path d="M163.068 346.111H147.992V362.431H163.068V346.111Z" fill="white"/>
<path d="M163.297 376.811H148.222V393.132H163.297V376.811Z" fill="#059A38" fill-opacity="0.75"/>
<path d="M163.512 412.537H148.437V428.857H163.512V412.537Z" fill="#059A38" fill-opacity="0.75"/>
<path d="M135.592 376.346H120.517V392.666H135.592V376.346Z" fill="#059A38" fill-opacity="0.75"/>
<path d="M135.592 376.346H120.517V392.666H135.592V376.346Z" fill="white"/>
<path d="M109.056 377.048H93.9807V393.368H109.056V377.048Z" fill="#059A38" fill-opacity="0.75"/>
<path d="M94.3178 414.956L94.203 410.189L108.841 410.49L108.884 420.089C108.884 420.089 98.0472 416.495 94.3178 414.956Z" fill="#059A38" fill-opacity="0.75"/>
<path d="M121.327 423.94L121.112 411.785L135.951 412.093L135.621 427.991L121.327 423.94Z" fill="#059A38" fill-opacity="0.75"/>
<path d="M128.772 326.362C133.35 326.362 137.062 322.657 137.062 318.087C137.062 313.517 133.35 309.813 128.772 309.813C124.193 309.813 120.481 313.517 120.481 318.087C120.481 322.657 124.193 326.362 128.772 326.362Z" fill="white"/>
<path d="M169.845 389.238L170.562 445.263C170.562 445.263 215.229 474.926 218.055 477.045C220.88 479.164 244.239 490.466 254.861 491.175L256.776 378.121L250.5 377.878L219.812 339.84L208.444 339.296L169.852 389.209" fill="#059A38" fill-opacity="0.75"/>
<path d="M169.845 389.238L208.48 340.799L212.748 340.957L217.624 341.243L220.314 341.522L250.5 377.914L256.776 378.15V375.981L250.737 375.738L221.82 340.463L222.006 326.82L208 326.097L207.462 340.062L170.326 357.907L169.845 389.238Z" fill="#D0F4DA"/>
<path d="M201.394 378.73H194.366V386.933H201.394V378.73Z" fill="white"/>
<path d="M232.384 378.794H225.356V386.997H232.384V378.794Z" fill="white"/>
<path d="M220.981 378.773H213.952V386.976H220.981V378.773Z" fill="white"/>
<path d="M211.65 378.708H204.622V386.911H211.65V378.708Z" fill="white"/>
<path d="M201.402 391.271H194.373V399.474H201.402V391.271Z" fill="white"/>
<path d="M232.391 391.335H225.363V399.538H232.391V391.335Z" fill="white"/>
<path d="M220.995 391.321H213.967V399.524H220.995V391.321Z" fill="white"/>
<path d="M211.665 391.256H204.636V399.459H211.665V391.256Z" fill="white"/>
<path d="M184.727 428.327H177.698V436.53H184.727V428.327Z" fill="white"/>
<path d="M193.857 418.893H186.828V427.096H193.857V418.893Z" fill="white"/>
<path d="M184.526 418.829H177.498V427.032H184.526V418.829Z" fill="white"/>
<path d="M193.95 428.406H186.922V436.609H193.95V428.406Z" fill="white"/>
<path d="M212.26 428.521H205.231V436.724H212.26V428.521Z" fill="white"/>
<path d="M221.383 419.086H214.354V427.289H221.383V419.086Z" fill="white"/>
<path d="M212.052 419.022H205.023V427.225H212.052V419.022Z" fill="white"/>
<path d="M221.476 428.599H214.447V436.802H221.476V428.599Z" fill="white"/>
<path d="M238.911 428.793H231.882V436.996H238.911V428.793Z" fill="white"/>
<path d="M248.033 419.351H241.005V427.554H248.033V419.351Z" fill="white"/>
<path d="M238.703 419.287H231.674V427.49H238.703V419.287Z" fill="white"/>
<path d="M248.127 428.872H241.098V437.075H248.127V428.872Z" fill="white"/>
<path d="M238.538 468.842H231.509V480.545H238.538V468.842Z" fill="white"/>
<path d="M247.668 459.4H240.639V467.603H247.668V459.4Z" fill="white"/>
<path d="M238.337 459.343H231.308V467.546H238.337V459.343Z" fill="white"/>
<path d="M220.006 459.171H212.977V467.374H220.006V459.171Z" fill="white"/>
<path d="M220.07 478.262L213.049 473.702L213.013 469.2H220.041L220.07 478.262Z" fill="white"/>
<path d="M210.675 459.107H203.646V467.31H210.675V459.107Z" fill="white"/>
<path d="M210.639 471.984L208.853 470.753L205.927 468.827L210.625 468.842L210.639 471.984Z" fill="white"/>
<path d="M247.761 468.92H240.732V480.574H247.761V468.92Z" fill="white"/>
<path d="M293.152 303.47H306.398L306.198 297.021L292.937 296.885L293.152 303.47Z" fill="#059A38" fill-opacity="0.75"/>
<path d="M256.181 363.977L254.911 491.168C254.911 491.168 277.675 494.668 298.151 489.507C318.626 484.346 342.337 478.77 342.337 478.77L343.126 365.187L329.341 358.43L306.979 318.917L306.427 303.47H293.159L292.736 318.917L269.176 357.735L256.181 363.977Z" fill="#D0F4DA"/>
<path d="M298.911 374.886H290.219V385.68H298.911V374.886Z" fill="#059A38" fill-opacity="0.75"/>
<path d="M311.275 375.079H302.002V385.68H311.275V375.079Z" fill="#059A38" fill-opacity="0.75"/>
<path d="M298.717 387.699H290.025V398.493H298.717V387.699Z" fill="#059A38" fill-opacity="0.75"/>
<path d="M311.082 387.892H301.808V398.493H311.082V387.892Z" fill="#059A38" fill-opacity="0.75"/>
<path d="M299.097 413.417H290.405V424.212H299.097V413.417Z" fill="#059A38" fill-opacity="0.75"/>
<path d="M278.614 413.353H269.922V424.147H278.614V413.353Z" fill="#059A38" fill-opacity="0.75"/>
<path d="M330.023 413.833H321.33V424.627H330.023V413.833Z" fill="#059A38" fill-opacity="0.75"/>
<path d="M330.274 461.383H321.581V472.177H330.274V461.383Z" fill="#059A38" fill-opacity="0.75"/>
<path d="M278.715 461.691H270.022V472.485H278.715V461.691Z" fill="#059A38" fill-opacity="0.75"/>
<path d="M311.462 413.604H302.188V424.204H311.462V413.604Z" fill="#059A38" fill-opacity="0.75"/>
<path d="M298.904 426.23H290.211V437.025H298.904V426.23Z" fill="#059A38" fill-opacity="0.75"/>
<path d="M311.268 426.423H301.995V437.024H311.268V426.423Z" fill="#059A38" fill-opacity="0.75"/>
<path d="M298.94 460.195H290.247V470.989H298.94V460.195Z" fill="#059A38" fill-opacity="0.75"/>
<path d="M311.304 460.388H302.031V470.989H311.304V460.388Z" fill="#059A38" fill-opacity="0.75"/>
<path d="M298.746 473.015H290.054V483.809H298.746V473.015Z" fill="#059A38" fill-opacity="0.75"/>
<path d="M311.11 473.208H301.837V483.809H311.11V473.208Z" fill="#059A38" fill-opacity="0.75"/>
<path d="M274.749 392.945C278.104 392.945 280.823 390.231 280.823 386.883C280.823 383.534 278.104 380.82 274.749 380.82C271.394 380.82 268.674 383.534 268.674 386.883C268.674 390.231 271.394 392.945 274.749 392.945Z" fill="#059A38" fill-opacity="0.75"/>
<path d="M324.013 394.291C327.367 394.291 330.087 391.577 330.087 388.228C330.087 384.88 327.367 382.166 324.013 382.166C320.658 382.166 317.938 384.88 317.938 388.228C317.938 391.577 320.658 394.291 324.013 394.291Z" fill="#059A38" fill-opacity="0.75"/>
<path d="M256.181 363.977H269.427L269.219 357.528L255.958 357.392L256.181 363.977Z" fill="#059A38" fill-opacity="0.75"/>
<path d="M329.858 365.187H343.104L342.896 358.737L329.643 358.601L329.858 365.187Z" fill="#059A38" fill-opacity="0.75"/>
<path d="M300.266 360.856C306.033 360.856 310.709 356.19 310.709 350.434C310.709 344.678 306.033 340.012 300.266 340.012C294.499 340.012 289.824 344.678 289.824 350.434C289.824 356.19 294.499 360.856 300.266 360.856Z" fill="#059A38" fill-opacity="0.75"/>
<path d="M337.632 365.731L338.399 420.618C338.399 420.618 340.408 479.421 340.601 479.228C345.313 474.368 418.115 469.407 426.528 469.207L424.57 354.679L418.295 354.435L387.592 316.369L376.224 315.825L337.632 365.738" fill="#059A38" fill-opacity="0.75"/>
<path d="M337.632 365.731L376.267 317.293L380.534 317.457L385.411 317.744L388.101 318.016L418.287 354.407L424.563 354.65V352.481L418.524 352.238L389.607 316.956L389.793 303.313L375.787 302.59L375.249 316.562L337.661 358.702L337.632 365.731Z" fill="#D0F4DA"/>
<path d="M369.174 355.223H362.146V363.426H369.174V355.223Z" fill="white"/>
<path d="M400.171 355.294H393.143V363.498H400.171V355.294Z" fill="white"/>
<path d="M388.768 355.273H381.739V363.476H388.768V355.273Z" fill="white"/>
<path d="M379.437 355.208H372.409V363.412H379.437V355.208Z" fill="white"/>
<path d="M369.188 367.764H362.16V375.967H369.188V367.764Z" fill="white"/>
<path d="M400.178 367.835H393.15V376.038H400.178V367.835Z" fill="white"/>
<path d="M388.782 367.814H381.754V376.017H388.782V367.814Z" fill="white"/>
<path d="M379.451 367.749H372.423V375.952H379.451V367.749Z" fill="white"/>
<path d="M352.679 410.712H345.65V418.915H352.679V410.712Z" fill="white"/>
<path d="M361.801 401.277H354.773V409.48H361.801V401.277Z" fill="white"/>
<path d="M352.471 401.213H345.442V409.416H352.471V401.213Z" fill="white"/>
<path d="M361.895 410.79H354.866V418.993H361.895V410.79Z" fill="white"/>
<path d="M380.204 410.905H373.176V419.108H380.204V410.905Z" fill="white"/>
<path d="M389.334 401.471H382.306V409.674H389.334V401.471Z" fill="white"/>
<path d="M380.004 401.406H372.975V409.609H380.004V401.406Z" fill="white"/>
<path d="M389.428 410.984H382.399V419.187H389.428V410.984Z" fill="white"/>
<path d="M406.855 411.177H399.827V419.38H406.855V411.177Z" fill="white"/>
<path d="M415.985 401.735H408.957V409.939H415.985V401.735Z" fill="white"/>
<path d="M406.655 401.671H399.626V409.874H406.655V401.671Z" fill="white"/>
<path d="M416.078 411.256H409.05V419.459H416.078V411.256Z" fill="white"/>
<path d="M352.872 446.688H345.844V454.891H352.872V446.688Z" fill="white"/>
<path d="M361.995 437.246H354.967V445.449H361.995V437.246Z" fill="white"/>
<path d="M352.664 437.182H345.636V445.385H352.664V437.182Z" fill="white"/>
<path d="M362.088 446.759H355.06V454.962H362.088V446.759Z" fill="white"/>
<path d="M380.398 446.881H373.37V455.084H380.398V446.881Z" fill="white"/>
<path d="M389.528 437.439H382.5V445.643H389.528V437.439Z" fill="white"/>
<path d="M380.197 437.375H373.169V445.578H380.197V437.375Z" fill="white"/>
<path d="M389.621 446.953H382.593V455.156H389.621V446.953Z" fill="white"/>
<path d="M407.049 447.146H400.021V455.349H407.049V447.146Z" fill="white"/>
<path d="M416.179 437.712H409.15V445.915H416.179V437.712Z" fill="white"/>
<path d="M406.848 437.647H399.82V445.85H406.848V437.647Z" fill="white"/>
<path d="M416.272 447.225H409.244V455.428H416.272V447.225Z" fill="white"/>
<path d="M432.775 339.59C432.775 339.59 451.321 310.12 452.755 307.257C454.19 304.394 453.473 292.941 453.473 292.941H448.452C448.452 292.941 452.755 280.772 464.948 280.772C477.14 280.772 480.726 286.499 482.16 289.362C483.595 292.225 482.877 293.657 482.877 293.657H478.574V305.11L499.373 339.468H507.979L510.805 471.827C510.805 471.827 428.995 467.997 427.267 469.149C426.729 469.507 426.772 465.764 426.686 465.112C426.327 462.321 423.265 361.071 424.807 339.711C424.807 339.733 432.832 339.583 432.775 339.59Z" fill="#D0F4DA"/>
<path d="M485.402 381.328H495.443V367.012C495.443 367.012 490.422 359.138 485.402 367.012V381.328ZM437.185 382.481H447.226V368.165C447.226 368.165 442.206 360.291 437.185 368.165V382.481ZM437.185 419.437H447.226V405.121C447.226 405.121 442.206 397.247 437.185 405.121V419.437ZM461.161 419.867H471.202V405.551C471.202 405.551 466.181 397.677 461.161 405.551V419.867ZM485.13 420.296H495.17V405.98C495.17 405.98 490.15 398.106 485.13 405.98V420.296ZM437.795 454.798H447.836V440.482C447.836 440.482 442.815 432.608 437.795 440.482V454.798ZM461.778 455.227H471.818V440.911C471.818 440.911 466.798 433.037 461.778 440.911V455.227ZM485.761 455.664H495.801V441.348C495.801 441.348 490.781 433.474 485.761 441.348V455.664Z" fill="white"/>
<path d="M488.522 352.209C492.019 352.209 494.855 349.38 494.855 345.889C494.855 342.398 492.019 339.568 488.522 339.568C485.024 339.568 482.189 342.398 482.189 345.889C482.189 349.38 485.024 352.209 488.522 352.209Z" fill="#D0F4DA"/>
<path d="M443.253 351.25C446.75 351.25 449.586 348.42 449.586 344.93C449.586 341.439 446.75 338.609 443.253 338.609C439.755 338.609 436.92 341.439 436.92 344.93C436.92 348.42 439.755 351.25 443.253 351.25Z" fill="#D0F4DA"/>
<path d="M466.361 382.438C469.858 382.438 472.693 379.608 472.693 376.117C472.693 372.626 469.858 369.797 466.361 369.797C462.863 369.797 460.028 372.626 460.028 376.117C460.028 379.608 462.863 382.438 466.361 382.438Z" fill="#D0F4DA"/>
<path d="M465.887 323.556C469.385 323.556 472.22 320.726 472.22 317.235C472.22 313.745 469.385 310.915 465.887 310.915C462.39 310.915 459.555 313.745 459.555 317.235C459.555 320.726 462.39 323.556 465.887 323.556Z" fill="#D0F4DA"/>
<path d="M455.359 340.821C455.39 339.185 455.985 337.61 457.044 336.361C458.04 335.127 459.287 334.117 460.703 333.397C462.118 332.678 463.67 332.266 465.256 332.188C471.926 332.009 474.852 337.607 475.261 339.898C475.878 343.355 475.741 360.763 475.741 360.763H455.129L455.237 355.588L455.359 340.821Z" fill="white"/>
<path d="M508.338 364.457L510.489 471.963C510.489 471.963 534.099 472.206 548.551 474.003C561.195 475.577 591.582 474.124 591.582 474.124L593.017 364.822L508.388 364.256" fill="#059A38" fill-opacity="0.75"/>
<path d="M507.735 364.457L592.981 364.815L592.593 344.479H567.341C567.341 344.479 564.207 332.31 552.452 332.31C538.03 332.31 535.627 345.123 535.627 345.123L507.656 344.829L507.735 364.457Z" fill="#059A38" fill-opacity="0.75"/>
<path d="M531.826 376.017H516.75V392.337H531.826V376.017Z" fill="white"/>
<path d="M559.065 375.781H543.989V392.101H559.065V375.781Z" fill="white"/>
<path d="M585.952 376.017H570.877V392.337H585.952V376.017Z" fill="white"/>
<path d="M586.182 406.718H571.106V423.038H586.182V406.718Z" fill="white"/>
<path d="M586.397 442.45H571.322V458.77H586.397V442.45Z" fill="white"/>
<path d="M559.086 441.792H544.011V458.112H559.086V441.792Z" fill="white"/>
<path d="M531.833 441.455H516.758V457.775H531.833V441.455Z" fill="white"/>
<path d="M558.477 406.252H543.401V422.572H558.477V406.252Z" fill="white"/>
<path d="M558.477 406.252H543.401V422.572H558.477V406.252Z" fill="white"/>
<path d="M531.941 406.954H516.865V423.274H531.941V406.954Z" fill="white"/>
<path d="M551.656 356.268C556.235 356.268 559.947 352.563 559.947 347.993C559.947 343.423 556.235 339.719 551.656 339.719C547.077 339.719 543.365 343.423 543.365 347.993C543.365 352.563 547.077 356.268 551.656 356.268Z" fill="white"/>
<path d="M629.608 272.326H642.854L642.646 265.884L629.385 265.741L629.608 272.326Z" fill="white"/>
<path d="M592.637 332.84L591.051 474.289C591.051 474.289 619.409 467.131 637.368 458.226C654.387 449.801 662.469 431.255 664.406 427.633C664.61 427.244 664.782 426.84 664.922 426.423L674.762 397.233C675.036 396.432 675.24 395.608 675.372 394.771L679.861 365.967L682.013 352.782C682.142 351.966 682.142 351.135 682.013 350.32L679.639 334.636C679.611 334.46 679.541 334.294 679.435 334.15C679.329 334.007 679.19 333.892 679.029 333.813L665.733 327.299L643.371 287.787L642.818 272.34H629.572L629.149 287.787L605.618 326.584L592.637 332.84Z" fill="#D0F4DA"/>
<path d="M635.367 343.749H626.674V354.543H635.367V343.749Z" fill="white"/>
<path d="M647.724 343.935H638.451V354.536H647.724V343.935Z" fill="white"/>
<path d="M635.173 356.561H626.481V367.356H635.173V356.561Z" fill="white"/>
<path d="M647.53 356.755H638.257V367.356H647.53V356.755Z" fill="white"/>
<path d="M635.553 382.273H626.861V393.067H635.553V382.273Z" fill="white"/>
<path d="M615.07 382.216H606.378V393.01H615.07V382.216Z" fill="white"/>
<path d="M666.478 382.695H657.786V393.49H666.478V382.695Z" fill="white"/>
<path d="M660.583 435.149L657.973 438.9L658.303 429.437L663.581 429.222L660.583 435.149Z" fill="white"/>
<path d="M615.171 430.554H606.478V441.348H615.171V430.554Z" fill="white"/>
<path d="M647.91 382.466H638.637V393.067H647.91V382.466Z" fill="white"/>
<path d="M635.36 395.093H626.667V405.887H635.36V395.093Z" fill="white"/>
<path d="M647.717 395.286H638.444V405.887H647.717V395.286Z" fill="white"/>
<path d="M635.395 429.058H626.703V439.852H635.395V429.058Z" fill="white"/>
<path d="M647.753 429.251H638.479V439.852H647.753V429.251Z" fill="white"/>
<path d="M635.202 441.877H626.509V452.672H635.202V441.877Z" fill="white"/>
<path d="M646.828 451.92L645.845 452.672H638.286V442.071H647.559V451.219L646.828 451.92Z" fill="white"/>
<path d="M611.205 361.801C614.559 361.801 617.279 359.087 617.279 355.738C617.279 352.39 614.559 349.675 611.205 349.675C607.85 349.675 605.13 352.39 605.13 355.738C605.13 359.087 607.85 361.801 611.205 361.801Z" fill="white"/>
<path d="M660.468 363.154C663.823 363.154 666.543 360.439 666.543 357.091C666.543 353.743 663.823 351.028 660.468 351.028C657.114 351.028 654.394 353.743 654.394 357.091C654.394 360.439 657.114 363.154 660.468 363.154Z" fill="white"/>
<path d="M592.629 332.84H605.876L605.675 326.39L592.414 326.254L592.629 332.84Z" fill="white"/>
<path d="M666.314 334.049H679.56L678.699 330.005L678.14 327.586L666.091 327.464L666.314 334.049Z" fill="white"/>
<path d="M636.715 329.719C642.482 329.719 647.157 325.053 647.157 319.297C647.157 313.541 642.482 308.875 636.715 308.875C630.948 308.875 626.273 313.541 626.273 319.297C626.273 325.053 630.948 329.719 636.715 329.719Z" fill="white"/>
</g>
<defs>
<clipPath id="clip0">
<rect width="700" height="493" fill="white"/>
</clipPath>
</defs>
</svg>
