<svg width="229" height="325" viewBox="0 0 229 325" fill="none" xmlns="http://www.w3.org/2000/svg">
<path fill-rule="evenodd" clip-rule="evenodd" d="M151.937 117.279L94.5831 118.361C86.0233 114.301 90.2545 98.7232 90.2545 86.371C113.391 84.4548 216.13 90.6039 226.605 84.3033C229.851 81.1854 228.769 10.8179 228.271 0.630859C177.259 1.1938 113.769 1.16132 86.3046 1.41032C-9.62763 2.27638 4.31036 -6.94719 3.73682 26.7101L3.55294 190.742C3.42308 199.89 1.97294 202.499 7.94638 204.643C10.4245 205.541 140.823 205.422 151.872 204.545L151.937 117.279Z" fill="#00A551"/>
<path fill-rule="evenodd" clip-rule="evenodd" d="M0.891103 324.451L227.925 324.083C228.564 289.376 226.54 261.456 224.971 240.616C202.733 239.22 10.4139 238.841 0.566406 241.796L0.891103 324.451Z" fill="#0C7E7E"/>
</svg>
