<svg width="636" height="435" viewBox="0 0 636 435" fill="none" xmlns="http://www.w3.org/2000/svg">
<g clip-path="url(#clip0)">
<path d="M214.289 118.328C243.326 81.6943 305.029 66.3681 346.278 121.284C381.267 167.863 396.511 170.528 423.104 179.39C440.664 185.243 469.398 193.175 452.655 238.481C430.741 297.779 322.326 313.797 263.049 291.663C206.363 270.499 161.591 184.804 214.289 118.328Z" fill="url(#paint0_linear)"/>
<path d="M321.224 28.5231L311.647 18.9507L321.224 9.37927L330.8 18.9507L321.224 28.5231ZM517.206 245.886L506.367 235.051L517.206 224.218L528.045 235.051L517.206 245.886Z" stroke="#E1E4E5" stroke-width="5.087" stroke-linecap="round" stroke-linejoin="round"/>
<path d="M328.75 151.738C322.748 151.738 317.924 156.484 317.924 162.293C317.924 168.102 322.786 172.809 328.788 172.809C334.789 172.809 339.613 168.102 339.613 162.255C339.651 156.484 334.789 151.738 328.75 151.738Z" stroke="white" stroke-width="48.925" stroke-linecap="round" stroke-linejoin="round"/>
<path d="M349.885 16.5858C422.632 2.24867 478.286 81.8311 460.721 140.426" stroke="#E1E4E5" stroke-width="1.829" stroke-miterlimit="10" stroke-dasharray="7.6 7.6"/>
<path d="M449.7 156.241C445.096 158.703 443.343 164.42 445.805 169.022C448.251 173.624 453.986 175.376 458.59 172.915C463.194 170.455 464.948 164.738 462.486 160.136C460.024 155.517 454.304 153.781 449.7 156.241Z" fill="#E1E4E5"/>
<path d="M414.036 402.591L6.8606 401.664C9.80521 399.916 12.7821 398.224 15.7897 396.587C25.4364 391.328 39.5342 384.3 57.3043 377.245C92.8507 363.131 143.047 348.927 201.679 348.534C260.579 348.139 313.493 361.864 352.793 376.07C372.437 383.17 388.667 390.386 400.531 396.009C405.053 398.16 409.555 400.354 414.036 402.591Z" fill="white" stroke="#E1E4E5" stroke-width="4"/>
<path d="M634.624 402.591L311.692 401.856C313.332 400.897 315.301 399.778 317.581 398.535C325.294 394.329 336.57 388.707 350.785 383.064C379.219 371.774 419.37 360.414 466.264 360.099C513.372 359.783 555.701 370.761 587.147 382.127C602.864 387.808 615.85 393.582 625.343 398.082C628.45 399.558 631.543 401.061 634.624 402.591ZM8.48688 135.879C11.2996 124.484 37.8769 107.843 52.0796 117.875C56.4387 96.1673 60.5169 82.6305 74.7596 71.9361C89.0023 61.2427 112.767 75.2211 116.584 104.498C120.4 92.4626 139.806 76.2422 155.395 89.9199C169.819 102.576 171.265 123.783 169.759 135.859H8.48688V135.879ZM584.043 117.862C582.452 111.401 567.415 101.964 559.38 107.653C556.914 95.3441 554.607 87.667 546.548 81.6034C538.49 75.5389 525.045 83.4657 522.886 100.068C520.726 93.243 509.747 84.0442 500.928 91.8002C492.767 98.9778 491.949 111.003 492.801 117.851H584.043V117.862ZM466.708 35.1791C467.82 30.6622 478.332 24.0651 483.949 28.0415C485.673 19.4363 487.287 14.0701 492.919 9.8309C498.553 5.59171 507.952 11.1327 509.462 22.7393C510.971 17.9676 518.647 11.5374 524.812 16.9595C530.518 21.977 531.089 30.3834 530.494 35.1711H466.708V35.1791ZM567.663 67.1504C568.776 62.6335 579.287 56.0364 584.905 60.0128C586.629 51.4076 588.242 46.0414 593.875 41.8022C599.508 37.563 608.908 43.104 610.417 54.7106C611.927 49.9389 619.602 43.5086 625.767 48.9308C631.473 53.9483 632.045 62.3547 631.449 67.1424H567.663V67.1504ZM235.358 40.7062C233.767 34.244 218.73 24.8074 210.695 30.4973C208.229 18.1874 205.922 10.5103 197.863 4.44674C189.806 -1.61781 176.36 6.30906 174.201 22.9111C172.041 16.0863 161.063 6.88856 152.242 14.6446C144.082 21.8211 143.263 33.8473 144.116 40.6942H235.358V40.7062Z" fill="white" stroke="#E1E4E5" stroke-width="4"/>
<path d="M189.749 160.276C193.568 160.276 196.665 163.371 196.665 167.189C196.665 171.006 193.568 174.101 189.749 174.101C185.929 174.101 182.833 171.006 182.833 167.189C182.833 163.371 185.929 160.276 189.749 160.276Z" fill="#E1E4E5"/>
<path d="M246.428 46.6038C242.487 46.6038 239.292 49.7972 239.292 53.7364C239.292 57.6756 242.487 60.869 246.428 60.869C250.369 60.869 253.564 57.6756 253.564 53.7364C253.564 49.7972 250.369 46.6038 246.428 46.6038Z" fill="#E1E4E5"/>
<path d="M185.369 248.321C189.04 253.661 186.459 261.81 186.459 261.81C186.459 261.81 177.928 261.296 174.262 255.952C170.59 250.61 173.167 242.465 173.167 242.465C173.167 242.465 181.698 242.979 185.369 248.321ZM520.168 156.753C516.5 162.091 519.078 170.236 519.078 170.236C519.078 170.236 527.605 169.721 531.27 164.379C534.939 159.042 532.364 150.9 532.364 150.9C532.364 150.9 523.837 151.415 520.168 156.753ZM428.145 287.281C424.475 292.619 427.054 300.763 427.054 300.763C427.054 300.763 435.58 300.249 439.246 294.907C442.915 289.569 440.339 281.428 440.339 281.428C440.339 281.428 431.813 281.942 428.145 287.281ZM440.337 55.275C437.559 59.3164 439.512 65.4839 439.512 65.4839C439.512 65.4839 445.968 65.0942 448.744 61.0498C451.521 57.0075 449.571 50.843 449.571 50.843C449.571 50.843 443.115 51.2327 440.337 55.275Z" fill="#E1E4E5"/>
<path fill-rule="evenodd" clip-rule="evenodd" d="M79.1497 358.354C79.1497 369.681 71.705 379.865 62.522 379.865C53.3381 379.865 45.8934 369.681 45.8934 358.354C45.8934 347.028 57.3253 314.137 62.522 314.137C67.7177 314.137 79.1497 347.028 79.1497 358.354Z" fill="#E1E4E5" stroke="#E1E4E5" stroke-width="2" stroke-linecap="round" stroke-linejoin="round"/>
<mask id="mask0" mask-type="alpha" maskUnits="userSpaceOnUse" x="61" y="328" width="4" height="64">
<path fill-rule="evenodd" clip-rule="evenodd" d="M62.9109 328.492H62.8889C62.2682 328.492 61.7664 329.012 61.7664 329.653V391.197H64.0334V329.653C64.0334 329.012 63.5306 328.492 62.9109 328.492Z" fill="white"/>
</mask>
<g mask="url(#mask0)">
<path d="M61.7664 391.197H58.7677C58.7677 391.992 59.0836 392.754 59.646 393.317C60.2084 393.879 60.9711 394.194 61.7664 394.194V391.197ZM64.0334 391.197V394.194C64.8287 394.194 65.5914 393.879 66.1538 393.317C66.7161 392.754 67.032 391.992 67.032 391.197H64.0334ZM62.9109 325.494H62.8889V331.489H62.9109V325.494ZM62.8889 325.494C60.5159 325.494 58.7677 327.454 58.7677 329.653H64.7651C64.7651 330.569 64.0214 331.489 62.8889 331.489V325.494ZM58.7677 329.653V391.197H64.7651V329.653H58.7677ZM61.7664 394.194H64.0334V388.2H61.7664V394.194ZM67.032 391.197V329.653H61.0347V391.197H67.032ZM67.032 329.653C67.032 327.453 65.2828 325.494 62.9109 325.494V331.489C62.667 331.492 62.4251 331.446 62.1988 331.355C61.9725 331.264 61.7663 331.13 61.5921 330.959C61.4179 330.789 61.279 330.586 61.1833 330.361C61.0877 330.137 61.0372 329.896 61.0347 329.653H67.032Z" fill="#E1E4E5"/>
<path fill-rule="evenodd" clip-rule="evenodd" d="M79.1497 358.354C79.1497 369.681 71.705 379.865 62.522 379.865C53.3381 379.865 45.8934 369.681 45.8934 358.354C45.8934 347.028 57.3253 314.137 62.522 314.137C67.7177 314.137 79.1497 347.028 79.1497 358.354Z" fill="#E1E4E5" stroke="#E1E4E5" stroke-width="2" stroke-linecap="round" stroke-linejoin="round"/>
<path d="M61.7664 391.197H58.7677C58.7677 391.992 59.0836 392.754 59.646 393.316C60.2084 393.879 60.9711 394.194 61.7664 394.194V391.197ZM64.0334 391.197V394.194C64.8287 394.194 65.5914 393.879 66.1538 393.316C66.7161 392.754 67.032 391.992 67.032 391.197H64.0334ZM62.9109 325.494H62.8889V331.489H62.9109V325.494ZM62.8889 325.494C60.5159 325.494 58.7677 327.454 58.7677 329.652H64.7651C64.7651 330.569 64.0214 331.489 62.8889 331.489V325.494ZM58.7677 329.652V391.197H64.7651V329.652H58.7677ZM61.7664 394.194H64.0334V388.2H61.7664V394.194ZM67.032 391.197V329.652H61.0347V391.197H67.032ZM67.032 329.652C67.032 327.453 65.2828 325.494 62.9109 325.494V331.489C62.667 331.491 62.4251 331.446 62.1988 331.355C61.9725 331.264 61.7663 331.13 61.5921 330.959C61.4179 330.789 61.279 330.585 61.1833 330.361C61.0877 330.137 61.0372 329.896 61.0347 329.652H67.032Z" fill="#E1E4E5"/>
</g>
<mask id="mask1" mask-type="alpha" maskUnits="userSpaceOnUse" x="221" y="313" width="3" height="68">
<path fill-rule="evenodd" clip-rule="evenodd" d="M222.264 313.923H222.24C221.581 313.923 221.046 314.475 221.046 315.156V380.562H223.456V315.156C223.456 314.475 222.922 313.923 222.264 313.923Z" fill="white"/>
</mask>
<g mask="url(#mask1)">
<path d="M221.046 380.562H218.047C218.047 381.357 218.363 382.119 218.926 382.681C219.488 383.243 220.251 383.559 221.046 383.559V380.562ZM223.456 380.562V383.559C224.251 383.559 225.014 383.243 225.576 382.681C226.139 382.119 226.455 381.357 226.455 380.562H223.456ZM222.264 310.925H222.24V316.92H222.264V310.925ZM222.24 310.925C219.828 310.925 218.047 312.917 218.047 315.156H224.045C224.045 316.032 223.333 316.92 222.24 316.92V310.925ZM218.047 315.156V380.562H224.045V315.156H218.047ZM221.046 383.559H223.456V377.564H221.046V383.559ZM226.455 380.562V315.156H220.457V380.562H226.455ZM226.455 315.156C226.455 312.917 224.674 310.925 222.264 310.925V316.92C222.029 316.923 221.796 316.879 221.579 316.792C221.361 316.705 221.163 316.576 220.995 316.412C220.827 316.248 220.693 316.053 220.601 315.838C220.509 315.622 220.46 315.391 220.457 315.156H226.455Z" fill="#E1E4E5"/>
</g>
<mask id="mask2" mask-type="alpha" maskUnits="userSpaceOnUse" x="477" y="301" width="3" height="79">
<path fill-rule="evenodd" clip-rule="evenodd" d="M478.54 301.679H478.512C477.743 301.679 477.12 302.324 477.12 303.12V379.498H479.934V303.12C479.934 302.324 479.31 301.679 478.54 301.679Z" fill="white"/>
</mask>
<g mask="url(#mask2)">
<path d="M477.12 379.498H474.121C474.121 380.293 474.437 381.055 475 381.617C475.562 382.179 476.325 382.495 477.12 382.495V379.498ZM479.934 379.498V382.495C480.729 382.495 481.492 382.179 482.054 381.617C482.617 381.055 482.932 380.293 482.932 379.498H479.934ZM478.54 298.681H478.512V304.676H478.54V298.681ZM478.512 298.681C475.991 298.681 474.121 300.768 474.121 303.12H480.119C480.119 303.881 479.496 304.676 478.512 304.676V298.681ZM474.121 303.12V379.498H480.119V303.12H474.121ZM477.12 382.495H479.934V376.5H477.12V382.495ZM482.932 379.498V303.12H476.935V379.498H482.932ZM482.932 303.12C482.932 300.767 481.062 298.681 478.54 298.681V304.676C478.121 304.682 477.717 304.522 477.416 304.23C477.115 303.939 476.942 303.539 476.935 303.12H482.932Z" fill="#E1E4E5"/>
</g>
<mask id="mask3" mask-type="alpha" maskUnits="userSpaceOnUse" x="300" y="347" width="2" height="44">
<path fill-rule="evenodd" clip-rule="evenodd" d="M300.811 347.727H300.796C300.376 347.727 300.036 348.078 300.036 348.512V390.133H301.571V348.512C301.574 348.307 301.496 348.109 301.353 347.962C301.211 347.815 301.016 347.731 300.811 347.727Z" fill="white"/>
</mask>
<g mask="url(#mask3)">
<path d="M300.036 390.133H297.038C297.038 390.928 297.353 391.691 297.916 392.253C298.478 392.815 299.241 393.131 300.036 393.131V390.133ZM301.571 390.133V393.131C302.366 393.131 303.129 392.815 303.691 392.253C304.253 391.691 304.569 390.928 304.569 390.133H301.571ZM300.811 344.73H300.796V350.725H300.811V344.73ZM300.796 344.73C298.624 344.73 297.038 346.521 297.038 348.512H303.035C303.033 348.804 302.974 349.093 302.861 349.362C302.747 349.632 302.582 349.876 302.374 350.082C302.166 350.287 301.92 350.45 301.649 350.56C301.378 350.67 301.088 350.726 300.796 350.725V344.73ZM297.038 348.512V390.133H303.035V348.512H297.038ZM300.036 393.131H301.571V387.136H300.036V393.131ZM304.569 390.133V348.512H298.572V390.133H304.569ZM304.569 348.512C304.569 346.52 302.982 344.73 300.811 344.73V350.725C300.22 350.728 299.653 350.496 299.233 350.081C298.813 349.666 298.575 349.102 298.572 348.512H304.569Z" fill="#E1E4E5"/>
</g>
<mask id="mask4" mask-type="alpha" maskUnits="userSpaceOnUse" x="400" y="339" width="2" height="43">
<path fill-rule="evenodd" clip-rule="evenodd" d="M400.832 339.218H400.816C400.611 339.222 400.416 339.306 400.274 339.454C400.132 339.601 400.054 339.799 400.057 340.003V381.625H401.59V340.003C401.594 339.799 401.516 339.601 401.374 339.454C401.231 339.306 401.037 339.222 400.832 339.218Z" fill="white"/>
</mask>
<g mask="url(#mask4)">
<path d="M400.057 381.625H397.058C397.058 382.42 397.374 383.182 397.937 383.744C398.499 384.306 399.262 384.622 400.057 384.622V381.625ZM401.59 381.625V384.622C402.386 384.622 403.148 384.306 403.711 383.744C404.273 383.182 404.589 382.42 404.589 381.625H401.59ZM400.832 336.221H400.816V342.215H400.832V336.221ZM400.816 336.221C398.644 336.221 397.058 338.013 397.058 340.003H403.056C403.054 340.295 402.995 340.585 402.881 340.854C402.768 341.123 402.602 341.368 402.394 341.573C402.186 341.778 401.94 341.941 401.669 342.051C401.398 342.161 401.108 342.217 400.816 342.215V336.221ZM397.058 340.003V381.625H403.056V340.003H397.058ZM400.057 384.622H401.59V378.627H400.057V384.622ZM404.589 381.625V340.003H398.592V381.625H404.589ZM404.589 340.003C404.589 338.012 403.003 336.221 400.832 336.221V342.215C400.539 342.217 400.249 342.161 399.979 342.051C399.708 341.941 399.461 341.778 399.253 341.573C399.045 341.368 398.88 341.123 398.766 340.854C398.653 340.585 398.593 340.295 398.592 340.003H404.589Z" fill="#E1E4E5"/>
</g>
<mask id="mask5" mask-type="alpha" maskUnits="userSpaceOnUse" x="557" y="323" width="4" height="65">
<path fill-rule="evenodd" clip-rule="evenodd" d="M558.899 323.67H558.876C558.248 323.67 557.74 324.196 557.74 324.846V387.136H560.034V324.846C560.034 324.196 559.526 323.67 558.899 323.67Z" fill="white"/>
</mask>
<g mask="url(#mask5)">
<path d="M557.74 387.136H554.741C554.741 387.931 555.057 388.693 555.619 389.255C556.182 389.817 556.944 390.133 557.74 390.133V387.136ZM560.035 387.136V390.133C560.83 390.133 561.593 389.817 562.155 389.255C562.717 388.693 563.033 387.931 563.033 387.136H560.035ZM558.899 320.673H558.876V326.667H558.899V320.673ZM558.876 320.673C556.495 320.673 554.741 322.64 554.741 324.846H560.738C560.738 325.753 560.002 326.667 558.876 326.667V320.673ZM554.741 324.846V387.136H560.738V324.846H554.741ZM557.74 390.133H560.035V384.139H557.74V390.133ZM563.033 387.136V324.846H557.036V387.136H563.033ZM563.033 324.846C563.033 322.639 561.278 320.673 558.899 320.673V326.667C558.657 326.67 558.417 326.625 558.192 326.535C557.968 326.445 557.763 326.312 557.59 326.142C557.417 325.973 557.279 325.772 557.184 325.549C557.089 325.327 557.038 325.088 557.036 324.846H563.033Z" fill="#E1E4E5"/>
</g>
</g>
<g clip-path="url(#clip1)">
<path d="M318.234 433.272C415.628 433.272 494.582 429.657 494.582 425.198C494.582 420.74 415.628 417.125 318.234 417.125C220.839 417.125 141.885 420.74 141.885 425.198C141.885 429.657 220.839 433.272 318.234 433.272Z" fill="#E6E7E8"/>
<path d="M173.702 189.718C173.702 189.718 143.362 187.084 136.943 198.519C130.524 209.955 136.194 217.001 142.313 218.757C148.433 220.513 166.448 215.694 166.448 215.694L173.702 189.718Z" fill="#231F20"/>
<path d="M145.844 220.213C144.546 220.246 143.251 220.102 141.992 219.784C140.191 219.292 138.525 218.396 137.12 217.164C135.715 215.932 134.608 214.397 133.883 212.675C132.685 209.762 132.107 204.858 136.023 197.984C142.784 186.099 172.546 188.54 173.809 188.647C173.966 188.668 174.117 188.721 174.253 188.802C174.389 188.883 174.507 188.99 174.6 189.118C174.689 189.248 174.748 189.396 174.774 189.551C174.799 189.707 174.791 189.866 174.75 190.017L167.475 215.973C167.424 216.151 167.329 216.313 167.198 216.444C167.067 216.576 166.905 216.671 166.727 216.722C159.901 218.588 152.905 219.758 145.844 220.213ZM166.341 190.531C157.162 190.531 142.035 191.709 137.863 199.097C135.103 203.937 134.418 208.37 135.852 211.947C136.462 213.369 137.386 214.635 138.552 215.65C139.719 216.666 141.1 217.406 142.592 217.814C147.769 219.292 162.426 215.673 165.55 214.88L172.311 190.788C171.049 190.639 169.037 190.531 166.341 190.531Z" fill="#231F20"/>
<path d="M173.702 194.386C173.702 194.386 145.416 192.245 139.339 201.56C133.263 210.876 138.612 216.551 144.346 218.029C150.08 219.506 166.898 215.523 166.898 215.523L173.702 194.386Z" fill="white"/>
<path d="M147.641 219.313C146.448 219.339 145.256 219.224 144.089 218.971C142.37 218.6 140.765 217.823 139.407 216.706C138.048 215.588 136.976 214.162 136.28 212.546C135.36 210.191 134.996 206.272 138.419 200.939C144.838 191.238 172.504 193.23 173.68 193.315C173.83 193.333 173.974 193.383 174.103 193.46C174.232 193.538 174.343 193.642 174.429 193.765C174.505 193.889 174.554 194.027 174.572 194.171C174.591 194.315 174.578 194.461 174.536 194.6L167.732 215.737C167.682 215.897 167.591 216.041 167.467 216.154C167.342 216.267 167.19 216.345 167.026 216.379C160.666 217.939 154.178 218.921 147.641 219.313ZM166.898 195.157C158.339 195.157 144.153 196.099 140.238 202.096C137.842 205.779 137.135 209.163 138.205 211.925C138.794 213.23 139.682 214.378 140.798 215.274C141.913 216.171 143.224 216.792 144.624 217.086C149.503 218.307 163.282 215.352 166.17 214.688L172.418 195.286C171.177 195.221 169.209 195.157 166.898 195.157Z" fill="#231F20"/>
<path d="M462.787 189.718C462.787 189.718 493.042 187.084 499.546 198.519C506.051 209.955 500.316 217.001 494.197 218.757C488.078 220.513 470.062 215.694 470.062 215.694L462.787 189.718Z" fill="#231F20"/>
<path d="M490.645 220.213C483.591 219.761 476.601 218.591 469.784 216.722C469.606 216.671 469.443 216.576 469.312 216.444C469.181 216.313 469.086 216.151 469.035 215.973L461.76 190.017C461.714 189.866 461.704 189.706 461.73 189.55C461.756 189.394 461.818 189.246 461.91 189.118C462.002 188.988 462.12 188.88 462.256 188.798C462.392 188.717 462.544 188.666 462.702 188.647C463.943 188.54 493.705 186.099 500.488 197.984C504.382 204.858 503.783 209.762 502.627 212.675C501.895 214.396 500.783 215.93 499.375 217.161C497.967 218.392 496.299 219.289 494.497 219.784C493.239 220.104 491.943 220.248 490.645 220.213ZM470.918 214.795C474.042 215.609 488.72 219.206 493.897 217.729C495.386 217.319 496.763 216.578 497.926 215.563C499.089 214.547 500.009 213.281 500.616 211.861C502.071 208.327 501.365 203.894 498.626 199.012C493.256 189.589 469.934 190.339 464.178 190.66L470.918 214.795Z" fill="#231F20"/>
<path d="M462.787 194.386C462.787 194.386 491.052 192.245 497.15 201.56C503.248 210.876 497.856 216.551 492.143 218.029C486.43 219.506 469.591 215.523 469.591 215.523L462.787 194.386Z" fill="white"/>
<path d="M488.805 219.313C482.25 218.949 475.741 217.996 469.356 216.465C469.193 216.429 469.042 216.35 468.918 216.238C468.794 216.125 468.702 215.982 468.65 215.823L461.846 194.686C461.803 194.546 461.791 194.398 461.814 194.254C461.836 194.109 461.891 193.971 461.974 193.851C462.056 193.728 462.163 193.624 462.289 193.547C462.415 193.469 462.555 193.419 462.702 193.401C463.879 193.401 491.63 191.26 497.963 201.025C501.451 206.357 501.108 210.276 500.103 212.632C499.403 214.246 498.33 215.67 496.972 216.787C495.614 217.904 494.01 218.682 492.293 219.056C491.144 219.273 489.974 219.359 488.805 219.313ZM470.34 214.688C473.25 215.33 487.008 218.307 491.908 217.086C493.308 216.792 494.619 216.171 495.734 215.274C496.85 214.378 497.738 213.23 498.327 211.925C499.396 209.163 498.69 205.779 496.187 202.096C491.202 194.429 469.442 195.007 463.964 195.286L470.34 214.688Z" fill="#231F20"/>
<path d="M144.282 210.962C144.141 210.963 144.002 210.936 143.873 210.88C143.744 210.825 143.628 210.743 143.533 210.64C143.433 210.541 143.353 210.422 143.299 210.292C143.244 210.161 143.216 210.021 143.216 209.88C143.216 209.739 143.244 209.599 143.299 209.468C143.353 209.338 143.433 209.219 143.533 209.12L154.424 198.412C154.521 198.313 154.638 198.233 154.766 198.179C154.895 198.125 155.033 198.097 155.173 198.097C155.312 198.097 155.45 198.125 155.579 198.179C155.707 198.233 155.824 198.313 155.921 198.412C156.024 198.508 156.105 198.624 156.161 198.753C156.217 198.882 156.246 199.021 156.246 199.162C156.246 199.302 156.217 199.441 156.161 199.57C156.105 199.699 156.024 199.815 155.921 199.911L145.031 210.619C144.937 210.726 144.822 210.811 144.693 210.87C144.564 210.929 144.424 210.961 144.282 210.962Z" fill="#D1D3D4"/>
<path d="M477.701 208.542C477.478 208.545 477.259 208.478 477.076 208.351C476.893 208.224 476.754 208.043 476.679 207.833C476.603 207.623 476.595 207.395 476.656 207.18C476.716 206.966 476.842 206.775 477.016 206.636L486.409 198.883C486.515 198.792 486.638 198.722 486.771 198.679C486.905 198.635 487.045 198.619 487.185 198.631C487.324 198.643 487.46 198.683 487.584 198.748C487.708 198.814 487.818 198.903 487.907 199.012C488.088 199.232 488.176 199.514 488.152 199.798C488.128 200.082 487.994 200.346 487.778 200.532L478.385 208.285C478.193 208.447 477.952 208.537 477.701 208.542Z" fill="#D1D3D4"/>
<path d="M489.319 209.42C489.152 209.421 488.988 209.383 488.839 209.309C488.69 209.234 488.561 209.126 488.463 208.991C488.3 208.76 488.234 208.474 488.278 208.194C488.322 207.914 488.473 207.663 488.698 207.492L493.17 204.259C493.285 204.176 493.415 204.118 493.553 204.086C493.691 204.055 493.833 204.051 493.972 204.075C494.112 204.098 494.245 204.15 494.364 204.225C494.484 204.301 494.587 204.4 494.668 204.516C494.829 204.744 494.895 205.026 494.851 205.302C494.807 205.578 494.657 205.826 494.432 205.993L489.982 209.227C489.785 209.356 489.554 209.423 489.319 209.42Z" fill="#D1D3D4"/>
<path d="M503.997 279.468C500.787 265.506 496.487 260.666 496.487 260.666C496.487 260.666 491.651 234.968 487.928 226.273C485.806 221.231 482.034 217.063 477.23 214.452C477.23 214.452 441.798 135.987 437.497 129.006C433.196 122.024 423.525 120.954 423.525 120.954C399.989 115.578 318.298 115.578 318.298 115.578C318.298 115.578 236.693 115.578 213.071 120.954C213.071 120.954 203.4 122.024 199.121 129.006C194.841 135.987 159.388 214.452 159.388 214.452C154.588 217.068 150.817 221.235 148.689 226.273C144.924 234.839 140.131 260.666 140.131 260.666C140.131 260.666 135.852 265.506 132.599 279.468C129.347 293.431 129.925 316.003 132.599 327.824H503.997C506.693 316.067 507.228 293.431 503.997 279.468Z" fill="#00713D"/>
<path d="M503.997 328.916H132.471C132.249 328.915 132.035 328.839 131.863 328.698C131.692 328.558 131.574 328.362 131.53 328.145C128.876 316.538 128.235 293.624 131.53 279.361C134.44 266.748 138.205 261.458 139.083 260.345C139.617 257.518 144.089 234.24 147.641 226.081C149.833 220.935 153.661 216.659 158.532 213.917C161.335 207.728 193.985 135.495 198.179 128.685C202.672 121.382 212.45 120.118 212.857 120.118C236.2 114.808 317.378 114.743 318.191 114.743C319.004 114.743 400.182 114.743 423.654 120.14C423.953 120.14 433.731 121.339 438.224 128.706C442.397 135.516 475.069 207.749 477.872 213.938C482.729 216.691 486.548 220.965 488.741 226.102C492.357 234.347 496.829 257.625 497.3 260.366C498.177 261.48 501.943 266.791 504.853 279.383C508.148 293.645 507.484 316.538 504.853 328.166C504.805 328.365 504.697 328.543 504.544 328.677C504.39 328.812 504.199 328.895 503.997 328.916ZM133.263 326.774H503.226C505.666 315.125 506.201 293.303 503.055 279.661C499.91 266.02 495.802 261.33 495.759 261.287C495.639 261.154 495.558 260.991 495.524 260.816C495.524 260.559 490.667 235.118 486.965 226.552C484.896 221.737 481.282 217.751 476.695 215.223C476.589 215.18 476.493 215.116 476.412 215.035C476.331 214.954 476.267 214.858 476.224 214.752C475.861 213.96 440.771 136.265 436.556 129.413C432.554 122.988 423.418 121.832 423.311 121.81C399.968 116.499 319.004 116.435 318.191 116.435C317.378 116.435 236.436 116.435 213.178 121.789C212.985 121.789 203.828 122.924 199.848 129.413C195.569 136.265 160.522 213.96 160.179 214.752C160.078 214.964 159.903 215.131 159.687 215.223C155.108 217.754 151.502 221.74 149.438 226.552C145.758 234.946 140.88 260.473 140.88 260.816C140.854 260.99 140.78 261.153 140.666 261.287C140.666 261.287 136.387 266.191 133.37 279.661C130.353 293.131 130.802 315.21 133.263 326.774Z" fill="#231F20"/>
<path d="M133.263 334.934H181.875V410.144C181.875 414.25 180.245 418.188 177.344 421.092C174.443 423.995 170.508 425.627 166.406 425.627H148.754C144.651 425.627 140.716 423.995 137.815 421.092C134.914 418.188 133.284 414.25 133.284 410.144V334.934H133.263Z" fill="#231F20"/>
<path d="M166.384 426.698H148.754C144.365 426.698 140.156 424.954 137.051 421.85C133.946 418.747 132.199 414.536 132.193 410.144V334.934C132.193 334.65 132.306 334.377 132.506 334.177C132.707 333.976 132.979 333.863 133.263 333.863H181.875C182.159 333.863 182.431 333.976 182.632 334.177C182.832 334.377 182.945 334.65 182.945 334.934V410.144C182.939 414.536 181.192 418.747 178.087 421.85C174.982 424.954 170.773 426.698 166.384 426.698ZM134.29 336.005V410.144C134.295 413.968 135.817 417.634 138.521 420.336C141.225 423.038 144.89 424.556 148.711 424.556H166.341C170.162 424.556 173.827 423.038 176.531 420.336C179.235 417.634 180.757 413.968 180.763 410.144V336.005H134.29Z" fill="#231F20"/>
<path d="M145.501 262.101C145.501 262.101 149.781 229.143 165.55 215.523C165.55 215.523 209.198 216.958 220.303 229.143C231.408 241.328 225.31 255.655 217.436 259.595C209.562 263.536 145.501 262.101 145.501 262.101Z" fill="white"/>
<path d="M170.556 263.321C157.483 263.321 146.593 263.086 145.523 263.064C145.384 263.062 145.248 263.03 145.122 262.971C144.997 262.912 144.886 262.827 144.795 262.722C144.707 262.62 144.642 262.5 144.605 262.371C144.568 262.241 144.56 262.105 144.581 261.972C144.753 260.602 149.096 228.479 164.951 214.859C165.141 214.712 165.373 214.63 165.614 214.623C167.411 214.623 209.819 216.23 221.073 228.565C223.482 231.021 225.278 234.012 226.315 237.294C227.353 240.576 227.602 244.056 227.043 247.453C226.59 250.175 225.537 252.761 223.961 255.025C222.384 257.288 220.323 259.171 217.928 260.537C213.178 262.829 189.556 263.321 170.556 263.321ZM146.678 261.18C169.059 261.651 211.081 261.737 217.051 258.76C219.172 257.526 220.995 255.837 222.39 253.816C223.784 251.795 224.715 249.49 225.117 247.067C225.605 243.98 225.361 240.822 224.406 237.846C223.451 234.87 221.811 232.161 219.618 229.935C209.476 218.799 170.257 216.851 165.935 216.658C152.455 228.479 147.641 255.419 146.678 261.137V261.18Z" fill="#231F20"/>
<path d="M163.432 325.404C163.305 325.405 163.179 325.381 163.061 325.333C162.944 325.285 162.837 325.215 162.747 325.125C148.989 311.355 150.915 282.938 151 281.717C151.008 281.588 151.042 281.463 151.099 281.347C151.157 281.232 151.237 281.129 151.335 281.045C151.432 280.962 151.546 280.898 151.669 280.859C151.791 280.82 151.92 280.806 152.049 280.817C152.308 280.839 152.548 280.961 152.72 281.157C152.892 281.352 152.981 281.607 152.969 281.867C152.969 282.145 151 310.606 164.138 323.733C164.312 323.923 164.409 324.172 164.409 324.429C164.409 324.687 164.312 324.936 164.138 325.125C164.044 325.216 163.934 325.288 163.812 325.335C163.691 325.383 163.562 325.406 163.432 325.404Z" fill="#231F20"/>
<path d="M214.355 128.385C214.129 128.38 213.911 128.3 213.736 128.156C213.561 128.012 213.44 127.814 213.392 127.592L212.044 121.168C211.995 120.914 212.048 120.652 212.191 120.437C212.334 120.222 212.555 120.072 212.807 120.019C213.06 119.965 213.323 120.013 213.54 120.152C213.757 120.291 213.912 120.51 213.97 120.761L215.318 127.185C215.362 127.44 215.307 127.703 215.164 127.918C215.02 128.133 214.8 128.285 214.547 128.342L214.355 128.385Z" fill="#231F20"/>
<path d="M487.735 425.627H470.083C465.981 425.627 462.046 423.995 459.145 421.092C456.244 418.188 454.614 414.25 454.614 410.144V334.934H503.205V410.229C503.182 414.321 501.543 418.237 498.644 421.122C495.745 424.007 491.823 425.627 487.735 425.627Z" fill="#231F20"/>
<path d="M487.842 426.698H470.083C465.699 426.692 461.495 424.946 458.395 421.843C455.294 418.74 453.55 414.532 453.544 410.144V334.934C453.544 334.65 453.657 334.377 453.857 334.177C454.058 333.976 454.33 333.863 454.614 333.863H503.205C503.489 333.863 503.761 333.976 503.961 334.177C504.162 334.377 504.275 334.65 504.275 334.934V410.144C504.269 414.514 502.54 418.705 499.462 421.805C496.385 424.905 492.209 426.664 487.842 426.698ZM455.748 336.005V410.144C455.754 413.964 457.272 417.627 459.972 420.329C462.671 423.03 466.33 424.55 470.148 424.556H487.842C491.66 424.55 495.319 423.03 498.018 420.329C500.717 417.627 502.236 413.964 502.242 410.144V336.005H455.748Z" fill="#231F20"/>
<path d="M490.945 262.101C490.945 262.101 486.666 229.143 470.896 215.523C470.896 215.523 427.227 216.958 416.122 229.143C405.017 241.328 411.115 255.655 418.989 259.595C426.863 263.536 490.945 262.101 490.945 262.101Z" fill="white"/>
<path d="M465.933 263.321C446.933 263.321 423.29 262.829 418.561 260.452C416.164 259.088 414.101 257.206 412.524 254.942C410.947 252.678 409.896 250.09 409.446 247.367C408.877 243.971 409.121 240.487 410.159 237.204C411.196 233.92 412.998 230.93 415.416 228.479C426.649 216.144 469.056 214.602 470.854 214.538C471.099 214.551 471.336 214.633 471.538 214.773C487.393 228.479 491.736 260.602 491.908 261.887C491.929 262.021 491.919 262.159 491.878 262.289C491.838 262.419 491.767 262.538 491.672 262.636C491.588 262.743 491.481 262.829 491.359 262.889C491.236 262.948 491.102 262.979 490.966 262.979C489.982 263.086 479.006 263.321 465.933 263.321ZM470.554 216.508C466.275 216.701 427.013 218.649 416.849 229.785C414.661 232.014 413.024 234.723 412.069 237.698C411.114 240.673 410.868 243.83 411.351 246.917C411.752 249.343 412.685 251.65 414.084 253.672C415.482 255.694 417.311 257.38 419.438 258.61C425.387 261.587 467.409 261.501 489.811 261.03C488.912 255.419 484.012 228.479 470.554 216.508Z" fill="#231F20"/>
<path d="M473.036 325.404C472.909 325.406 472.783 325.383 472.665 325.335C472.548 325.287 472.441 325.216 472.351 325.126C472.167 324.941 472.064 324.691 472.064 324.43C472.064 324.169 472.167 323.918 472.351 323.734C485.467 310.606 483.542 282.145 483.52 281.867C483.503 281.609 483.587 281.354 483.755 281.158C483.923 280.962 484.162 280.84 484.419 280.818C484.677 280.8 484.931 280.884 485.127 281.052C485.323 281.221 485.446 281.459 485.467 281.717C485.467 282.938 487.5 311.356 473.742 325.126C473.649 325.216 473.538 325.288 473.417 325.336C473.296 325.383 473.166 325.407 473.036 325.404Z" fill="#231F20"/>
<path d="M318.234 327.824H132.471C132.471 327.824 134.44 356.841 145.544 369.755C156.649 382.668 163.089 388.022 193.151 388.022H443.338C473.4 388.022 479.84 382.647 490.945 369.755C502.05 356.863 503.997 327.824 503.997 327.824H318.234Z" fill="#231F20"/>
<path d="M443.338 389.093H193.151C163.56 389.093 156.371 383.974 144.731 370.44C133.519 357.42 131.487 329.109 131.401 327.909C131.39 327.76 131.411 327.611 131.463 327.47C131.515 327.33 131.596 327.202 131.701 327.096C131.798 326.987 131.916 326.901 132.049 326.842C132.182 326.783 132.326 326.752 132.471 326.753H503.997C504.145 326.753 504.291 326.783 504.427 326.842C504.563 326.901 504.685 326.988 504.785 327.096C504.886 327.205 504.963 327.333 505.011 327.473C505.06 327.613 505.078 327.762 505.066 327.909C505.066 329.109 502.927 357.42 491.758 370.44C480.097 383.974 472.865 389.093 443.338 389.093ZM133.648 328.916C134.14 334.398 136.857 358.019 146.357 369.069C157.055 381.469 163.025 386.972 193.151 386.972H443.338C473.464 386.972 479.455 381.469 490.132 369.069C499.632 358.019 502.328 334.398 502.841 328.916H133.648Z" fill="#231F20"/>
<path d="M465.162 210.683C460.241 194.343 443.402 141.641 428.617 131.447C418.968 124.765 348.296 123.159 318.234 123.159C288.172 123.159 217.5 124.765 207.872 131.447C193.065 141.705 176.248 194.407 171.305 210.683C171.305 210.683 266.433 212.289 318.234 212.289C370.034 212.289 465.162 210.683 465.162 210.683Z" fill="#231F20"/>
<path d="M318.234 213.274C267.011 213.274 172.247 211.689 171.284 211.668C171.12 211.665 170.958 211.624 170.813 211.548C170.667 211.472 170.54 211.364 170.443 211.231C170.346 211.099 170.28 210.946 170.252 210.784C170.223 210.622 170.232 210.455 170.278 210.298C175.135 194.193 192.167 140.891 207.251 130.419C219.34 122.046 317.25 121.853 318.234 121.853C319.218 121.853 417.149 121.853 429.217 130.419C444.322 140.891 461.311 194.193 466.189 210.298C466.241 210.455 466.254 210.623 466.228 210.787C466.202 210.95 466.137 211.106 466.04 211.24C465.939 211.372 465.809 211.479 465.661 211.553C465.513 211.627 465.35 211.666 465.184 211.668C464.307 211.775 369.457 213.274 318.234 213.274ZM172.739 209.548C184.806 209.762 270.477 211.133 318.234 211.133C365.99 211.133 451.683 209.762 463.729 209.548C458.444 192.202 442.14 141.983 427.997 132.175C419.438 126.243 357.667 124.08 318.234 124.08C278.8 124.08 217.029 126.222 208.471 132.175C194.349 142.069 178.045 192.287 172.739 209.634V209.548Z" fill="#231F20"/>
<path d="M422.134 128.385H421.92C421.672 128.323 421.456 128.17 421.317 127.955C421.178 127.74 421.126 127.48 421.171 127.228L422.519 120.804C422.528 120.662 422.568 120.525 422.634 120.4C422.701 120.275 422.794 120.166 422.907 120.081C423.02 119.995 423.15 119.935 423.288 119.904C423.426 119.874 423.569 119.873 423.707 119.903C423.846 119.932 423.976 119.991 424.089 120.076C424.203 120.16 424.297 120.268 424.365 120.392C424.433 120.517 424.473 120.654 424.483 120.795C424.494 120.936 424.473 121.078 424.424 121.211L423.076 127.635C423.027 127.849 422.907 128.039 422.736 128.175C422.565 128.311 422.353 128.385 422.134 128.385Z" fill="#231F20"/>
<path d="M201.431 139.157C201.2 139.159 200.975 139.079 200.798 138.929C200.622 138.78 200.505 138.572 200.469 138.343C200.447 138.215 200.451 138.084 200.481 137.957C200.51 137.831 200.564 137.712 200.639 137.606C200.715 137.501 200.811 137.411 200.921 137.343C201.031 137.275 201.154 137.229 201.282 137.208C240.015 131.54 279.09 128.535 318.234 128.214C357.385 128.536 396.467 131.541 435.208 137.208C435.335 137.229 435.458 137.275 435.568 137.343C435.679 137.411 435.774 137.501 435.85 137.606C435.925 137.712 435.979 137.831 436.009 137.957C436.038 138.084 436.042 138.215 436.021 138.343C436.002 138.47 435.959 138.592 435.893 138.703C435.827 138.813 435.739 138.908 435.636 138.984C435.532 139.06 435.414 139.114 435.289 139.144C435.164 139.174 435.035 139.178 434.908 139.157C396.269 133.478 357.286 130.472 318.234 130.162C279.189 130.471 240.212 133.477 201.581 139.157H201.431Z" fill="#231F20"/>
<path d="M437.433 156.139C434.48 148.087 433.667 144.596 416.764 141.641C399.861 138.685 318.341 138.193 318.341 138.193C318.341 138.193 236.735 138.685 219.918 141.641C203.1 144.596 202.202 148.065 199.249 156.139C196.296 164.212 186.411 184.621 189.578 192.951C192.745 201.282 199.506 202.096 217.757 202.631C236.008 203.166 400.845 203.166 419.096 202.631C437.347 202.096 444.066 201.282 447.275 192.951C450.485 184.621 440.385 164.212 437.433 156.139Z" fill="white"/>
<path d="M318.234 204.002C272.36 204.002 226.486 203.873 217.543 203.595C199.955 203.081 192.017 202.481 188.465 193.315C185.727 186.184 191.824 171.322 195.868 161.492C196.788 159.351 197.58 157.317 198.136 155.817L198.372 155.132C201.175 147.487 202.651 143.632 219.554 140.677C236.457 137.722 314.896 137.229 318.234 137.208C321.572 137.186 400.118 137.743 416.935 140.677C433.753 143.611 435.315 147.487 438.096 155.132L438.353 155.817C438.888 157.317 439.701 159.265 440.621 161.492C444.643 171.322 450.763 186.184 448.003 193.315C444.451 202.481 436.534 203.081 418.925 203.595C410.003 203.873 364.108 204.002 318.234 204.002ZM318.234 139.157C317.421 139.157 236.521 139.692 219.811 142.604C203.935 145.367 202.822 148.429 200.126 155.796L199.891 156.481C199.313 158.002 198.521 159.972 197.58 162.242C193.9 171.194 187.738 186.206 190.22 192.609C193.194 200.297 199.313 201.175 217.521 201.646C235.387 202.181 400.931 202.181 418.797 201.646C436.983 201.11 443.124 200.297 446.098 192.609C448.559 186.184 442.397 171.194 438.717 162.242C437.797 159.972 436.983 157.959 436.427 156.481L436.17 155.796C433.496 148.429 432.383 145.367 416.507 142.604C399.946 139.692 319.047 139.157 318.234 139.157Z" fill="#231F20"/>
<path d="M318.255 298.721C317.934 298.721 288.878 298.442 259.608 297.115C199.869 294.395 197.559 290.155 196.596 288.549C191.696 279.854 186.646 220.17 186.433 217.643C186.375 217.497 186.354 217.34 186.369 217.184C186.385 217.028 186.438 216.878 186.523 216.747C186.608 216.616 186.723 216.506 186.859 216.429C186.995 216.351 187.147 216.306 187.303 216.299C187.46 216.292 187.616 216.322 187.758 216.387C187.9 216.452 188.025 216.55 188.122 216.673C188.219 216.796 188.285 216.941 188.315 217.095C188.345 217.248 188.338 217.407 188.294 217.557C188.294 218.178 193.536 279.361 198.2 287.671C201.517 293.581 273.537 296.429 318.17 296.836C362.76 296.429 434.78 293.581 438.096 287.671C442.782 279.361 447.96 218.178 448.002 217.557C448.029 217.302 448.153 217.066 448.348 216.899C448.543 216.732 448.794 216.646 449.051 216.658C449.18 216.669 449.306 216.705 449.422 216.765C449.537 216.825 449.639 216.907 449.723 217.006C449.807 217.106 449.87 217.221 449.908 217.345C449.947 217.469 449.961 217.599 449.95 217.729C449.736 220.256 444.686 279.94 439.808 288.634C438.909 290.24 436.513 294.481 376.796 297.2C347.59 298.442 318.533 298.721 318.255 298.721Z" fill="#231F20"/>
<path d="M386.656 310.009H271.822C268.714 310.009 266.195 312.531 266.195 315.642V338.77C266.195 341.88 268.714 344.402 271.822 344.402H386.656C389.764 344.402 392.283 341.88 392.283 338.77V315.642C392.283 312.531 389.764 310.009 386.656 310.009Z" fill="white"/>
<path fill-rule="evenodd" clip-rule="evenodd" d="M311.549 325.101L308.385 325.161C307.913 324.937 308.146 324.078 308.146 323.396C309.423 323.29 315.091 323.63 315.668 323.282C315.848 323.11 315.788 319.228 315.76 318.666C312.946 318.697 309.444 318.695 307.928 318.709C302.636 318.757 303.405 318.248 303.373 320.105L303.363 329.154C303.356 329.659 303.276 329.803 303.606 329.921C303.742 329.97 310.936 329.964 311.546 329.916L311.549 325.101Z" fill="#00A551"/>
<path fill-rule="evenodd" clip-rule="evenodd" d="M333.948 334.065C333.836 333.473 332.199 331.88 331.713 331.303C330.355 329.691 330.665 330.876 329.066 331.644C326.482 332.884 322.39 331.09 322.719 327.105C322.844 325.582 323.692 325.788 321.538 322.951L320.27 321.178C319.804 321.433 319.52 322.046 319.221 322.483C318.933 322.976 318.679 323.488 318.461 324.015C314.623 332.964 326.573 342.067 333.948 334.065Z" fill="#0C7E7E"/>
<path d="M333.948 334.065C333.836 333.473 332.199 331.88 331.713 331.303C330.355 329.691 330.665 330.876 329.066 331.644C326.482 332.884 322.39 331.09 322.719 327.105C322.844 325.582 323.692 325.788 321.538 322.951L320.27 321.178C319.804 321.433 319.52 322.046 319.221 322.483C318.933 322.976 318.679 323.488 318.461 324.015C314.623 332.964 326.573 342.067 333.948 334.065Z" stroke="#0C7E7E" stroke-width="0.57" stroke-miterlimit="22.93"/>
<path fill-rule="evenodd" clip-rule="evenodd" d="M343.976 323.363C351.958 324.099 350.441 331.412 344.328 332.185C344.378 333.36 347.84 335.037 349.022 335.37C350.055 335.661 350.46 335.233 351.03 334.784C355.459 330.344 355.296 323.956 350.57 320.321C348.304 318.578 343.906 322.159 343.976 323.363Z" fill="#0C7E7E"/>
<path d="M343.976 323.363C351.958 324.099 350.441 331.412 344.328 332.185C344.378 333.36 347.84 335.037 349.022 335.37C350.055 335.661 350.46 335.233 351.03 334.784C355.459 330.344 355.296 323.956 350.57 320.321C348.304 318.578 343.906 322.159 343.976 323.363Z" stroke="#0C7E7E" stroke-width="0.57" stroke-miterlimit="22.93"/>
<path fill-rule="evenodd" clip-rule="evenodd" d="M346.417 336.917C346.287 336.559 345.022 335.853 344.373 335.323C339.013 330.935 338.683 323.722 344.271 319.313C344.45 319.173 345.291 318.667 345.34 318.578C336.486 317.317 331.664 329.202 338.754 334.887C340.638 336.397 344.397 337.62 346.417 336.917" fill="#00A551"/>
<path fill-rule="evenodd" clip-rule="evenodd" d="M303.216 336.53L315.741 336.51C315.777 334.595 315.665 333.055 315.578 331.905C314.352 331.828 303.742 331.807 303.198 331.971L303.216 336.53Z" fill="#0C7E7E"/>
<path d="M303.216 336.53L315.741 336.51C315.777 334.595 315.665 333.055 315.578 331.905C314.352 331.828 303.742 331.807 303.198 331.971L303.216 336.53Z" stroke="#0C7E7E" stroke-width="0.57" stroke-miterlimit="22.93"/>
<path fill-rule="evenodd" clip-rule="evenodd" d="M323.929 318.846C324.017 319.467 326.275 322.576 326.633 323.206C328.885 323.428 328.484 323.37 330.441 324.601C330.897 324.307 332.551 322.435 332.852 322.067C333.577 321.18 334.326 320.762 332.14 319.439C330.018 318.153 326.488 317.8 323.929 318.846Z" fill="#00A551"/>
<path d="M386.403 345.47H271.547C269.799 345.47 268.123 344.775 266.887 343.538C265.651 342.301 264.957 340.623 264.957 338.874V315.724C264.957 313.975 265.651 312.297 266.887 311.06C268.123 309.823 269.799 309.128 271.547 309.128H386.403C388.15 309.128 389.827 309.823 391.062 311.06C392.298 312.297 392.993 313.975 392.993 315.724V338.874C392.993 340.623 392.298 342.301 391.062 343.538C389.827 344.775 388.15 345.47 386.403 345.47ZM271.547 311.077C270.316 311.077 269.135 311.567 268.264 312.438C267.393 313.31 266.904 314.492 266.904 315.724V338.874C266.91 340.103 267.401 341.279 268.272 342.146C269.142 343.013 270.319 343.5 271.547 343.5H386.403C387.63 343.5 388.808 343.013 389.678 342.146C390.548 341.279 391.04 340.103 391.046 338.874V315.724C391.046 314.492 390.556 313.31 389.686 312.438C388.815 311.567 387.634 311.077 386.403 311.077H271.547Z" fill="#231F20"/>
<path d="M273.687 319.515C274.656 319.515 275.441 318.729 275.441 317.759C275.441 316.789 274.656 316.003 273.687 316.003C272.718 316.003 271.932 316.789 271.932 317.759C271.932 318.729 272.718 319.515 273.687 319.515Z" fill="#D1D3D4"/>
<path d="M384.284 319.515C385.253 319.515 386.039 318.729 386.039 317.759C386.039 316.789 385.253 316.003 384.284 316.003C383.315 316.003 382.53 316.789 382.53 317.759C382.53 318.729 383.315 319.515 384.284 319.515Z" fill="#D1D3D4"/>
<path d="M273.687 338.574C274.656 338.574 275.441 337.788 275.441 336.818C275.441 335.848 274.656 335.062 273.687 335.062C272.718 335.062 271.932 335.848 271.932 336.818C271.932 337.788 272.718 338.574 273.687 338.574Z" fill="#D1D3D4"/>
<path d="M384.284 338.574C385.253 338.574 386.039 337.788 386.039 336.818C386.039 335.848 385.253 335.062 384.284 335.062C383.315 335.062 382.53 335.848 382.53 336.818C382.53 337.788 383.315 338.574 384.284 338.574Z" fill="#D1D3D4"/>
<path d="M171.969 257.261C168.802 257.265 165.706 256.329 163.071 254.572C160.436 252.814 158.382 250.314 157.167 247.387C155.953 244.461 155.633 241.239 156.248 238.131C156.863 235.022 158.385 232.166 160.623 229.923C162.86 227.681 165.712 226.153 168.817 225.533C171.922 224.914 175.141 225.229 178.067 226.441C180.993 227.653 183.493 229.706 185.253 232.341C187.012 234.976 187.952 238.073 187.952 241.243C187.946 245.485 186.261 249.553 183.265 252.556C180.27 255.558 176.208 257.25 171.969 257.261ZM171.969 227.387C169.225 227.383 166.541 228.193 164.258 229.717C161.974 231.24 160.194 233.407 159.142 235.944C158.09 238.48 157.814 241.272 158.348 243.966C158.882 246.66 160.203 249.134 162.143 251.076C164.084 253.018 166.556 254.341 169.248 254.875C171.939 255.41 174.729 255.133 177.263 254.081C179.797 253.028 181.962 251.246 183.484 248.96C185.006 246.675 185.816 243.989 185.812 241.243C185.806 237.57 184.346 234.049 181.751 231.451C179.156 228.854 175.638 227.393 171.969 227.387Z" fill="#D1D3D4"/>
<path d="M206.31 254.156C203.771 254.156 201.289 253.402 199.177 251.99C197.066 250.578 195.421 248.572 194.449 246.224C193.478 243.876 193.223 241.292 193.719 238.8C194.214 236.308 195.437 234.018 197.232 232.221C199.027 230.424 201.315 229.2 203.805 228.705C206.295 228.209 208.877 228.463 211.223 229.436C213.568 230.408 215.573 232.055 216.984 234.168C218.395 236.281 219.148 238.765 219.148 241.307C219.148 244.715 217.795 247.983 215.387 250.392C212.98 252.802 209.715 254.156 206.31 254.156ZM206.31 230.492C204.194 230.492 202.125 231.12 200.366 232.297C198.607 233.473 197.236 235.145 196.426 237.102C195.616 239.059 195.404 241.212 195.817 243.289C196.23 245.366 197.249 247.274 198.745 248.771C200.241 250.269 202.147 251.288 204.223 251.701C206.298 252.115 208.449 251.903 210.404 251.092C212.359 250.282 214.029 248.909 215.205 247.148C216.38 245.388 217.008 243.317 217.008 241.2C217.019 239.786 216.751 238.385 216.218 237.076C215.686 235.767 214.899 234.576 213.905 233.573C212.91 232.569 211.727 231.773 210.424 231.23C209.12 230.686 207.722 230.406 206.31 230.406V230.492Z" fill="#D1D3D4"/>
<path d="M466.446 257.261C463.28 257.265 460.183 256.329 457.549 254.572C454.914 252.814 452.859 250.314 451.645 247.387C450.43 244.461 450.11 241.239 450.725 238.131C451.34 235.022 452.863 232.166 455.1 229.923C457.338 227.681 460.189 226.153 463.294 225.533C466.4 224.914 469.619 225.229 472.544 226.441C475.47 227.653 477.971 229.706 479.73 232.341C481.49 234.976 482.429 238.073 482.429 241.243C482.423 245.485 480.738 249.553 477.743 252.556C474.747 255.558 470.685 257.25 466.446 257.261ZM466.446 227.387C463.702 227.383 461.018 228.193 458.735 229.717C456.452 231.24 454.671 233.407 453.619 235.944C452.567 238.48 452.291 241.272 452.825 243.966C453.36 246.66 454.68 249.134 456.621 251.076C458.561 253.018 461.034 254.341 463.725 254.875C466.417 255.41 469.206 255.133 471.74 254.081C474.275 253.028 476.44 251.246 477.962 248.96C479.484 246.675 480.294 243.989 480.289 241.243C480.284 237.57 478.823 234.049 476.229 231.451C473.634 228.854 470.116 227.393 466.446 227.387Z" fill="#D1D3D4"/>
<path d="M432.019 254.156C429.48 254.156 426.998 253.402 424.887 251.99C422.776 250.578 421.131 248.572 420.159 246.224C419.187 243.876 418.933 241.292 419.428 238.8C419.924 236.308 421.146 234.018 422.942 232.221C424.737 230.424 427.025 229.2 429.515 228.705C432.005 228.209 434.587 228.463 436.932 229.436C439.278 230.408 441.283 232.055 442.694 234.168C444.104 236.281 444.857 238.765 444.857 241.307C444.857 244.715 443.505 247.983 441.097 250.392C438.69 252.802 435.424 254.156 432.019 254.156ZM432.019 230.492C429.904 230.492 427.835 231.12 426.076 232.297C424.317 233.473 422.945 235.145 422.136 237.102C421.326 239.059 421.114 241.212 421.527 243.289C421.94 245.366 422.959 247.274 424.455 248.771C425.951 250.269 427.857 251.288 429.932 251.701C432.008 252.115 434.159 251.903 436.113 251.092C438.068 250.282 439.739 248.909 440.915 247.148C442.09 245.388 442.718 243.317 442.718 241.2C442.729 239.786 442.461 238.385 441.928 237.076C441.395 235.767 440.609 234.576 439.615 233.573C438.62 232.569 437.437 231.773 436.133 231.23C434.83 230.686 433.432 230.406 432.019 230.406V230.492Z" fill="#D1D3D4"/>
<path d="M163.432 247.046C163.281 247.044 163.133 247.011 162.997 246.948C162.861 246.886 162.739 246.795 162.64 246.682C162.54 246.582 162.46 246.464 162.406 246.333C162.351 246.203 162.323 246.063 162.323 245.922C162.323 245.78 162.351 245.64 162.406 245.51C162.46 245.379 162.54 245.261 162.64 245.161L176.419 232.998C176.519 232.897 176.637 232.818 176.767 232.763C176.898 232.709 177.037 232.681 177.179 232.681C177.32 232.681 177.46 232.709 177.59 232.763C177.72 232.818 177.839 232.897 177.938 232.998C178.136 233.201 178.246 233.474 178.246 233.758C178.246 234.042 178.136 234.314 177.938 234.518L164.159 246.682C164.071 246.791 163.96 246.88 163.835 246.943C163.709 247.005 163.572 247.041 163.432 247.046Z" fill="#D1D3D4"/>
<path d="M167.197 250.836C167.044 250.835 166.893 250.802 166.753 250.739C166.613 250.677 166.487 250.586 166.384 250.472C166.292 250.365 166.222 250.239 166.178 250.104C166.135 249.969 166.118 249.827 166.13 249.685C166.142 249.544 166.182 249.406 166.248 249.28C166.314 249.154 166.404 249.043 166.513 248.952L174.386 242.292C174.605 242.146 174.87 242.086 175.13 242.124C175.39 242.161 175.628 242.293 175.797 242.494C175.966 242.695 176.056 242.952 176.048 243.214C176.04 243.477 175.936 243.728 175.756 243.919L167.882 250.601C167.69 250.76 167.447 250.844 167.197 250.836Z" fill="#D1D3D4"/>
<path d="M337.918 129.177H299.619V133.674H337.918V129.177Z" fill="#231F20"/>
<path d="M337.918 134.745H299.555C299.271 134.745 298.999 134.632 298.798 134.431C298.598 134.231 298.485 133.958 298.485 133.674V129.177C298.49 128.895 298.605 128.626 298.804 128.426C299.004 128.226 299.273 128.112 299.555 128.106H337.854C338.138 128.106 338.41 128.219 338.611 128.42C338.811 128.621 338.924 128.893 338.924 129.177V133.674C338.924 133.947 338.821 134.21 338.634 134.41C338.447 134.609 338.191 134.729 337.918 134.745ZM300.689 132.603H336.849V130.248H300.689V132.603Z" fill="#231F20"/>
<path d="M458.551 388.986C458.315 388.992 458.085 388.91 457.907 388.756C457.728 388.601 457.615 388.385 457.588 388.15C457.567 388.024 457.571 387.894 457.6 387.769C457.63 387.644 457.684 387.526 457.76 387.422C457.836 387.318 457.932 387.231 458.042 387.165C458.152 387.098 458.274 387.055 458.401 387.037C458.551 387.037 472.501 384.895 481.937 377.743C491.13 370.334 497.412 359.912 499.674 348.318C499.744 348.091 499.892 347.897 500.093 347.771C500.294 347.645 500.533 347.595 500.767 347.632C501.001 347.668 501.215 347.788 501.368 347.969C501.521 348.15 501.603 348.381 501.6 348.618C499.338 360.744 492.772 371.643 483.114 379.306C473.336 386.78 459.342 388.9 458.743 388.986H458.551Z" fill="#D1D3D4"/>
<path d="M178.666 388.985H178.516C177.917 388.985 163.924 386.844 154.146 379.306C144.496 371.635 137.933 360.74 135.659 348.618C135.619 348.359 135.684 348.096 135.838 347.885C135.993 347.674 136.225 347.533 136.483 347.494C136.741 347.454 137.004 347.518 137.215 347.673C137.426 347.828 137.566 348.06 137.606 348.318C139.858 359.916 146.142 370.341 155.344 377.742C164.715 384.917 178.666 387.037 178.88 387.037C179.138 387.074 179.371 387.212 179.527 387.421C179.684 387.629 179.751 387.892 179.714 388.15C179.682 388.398 179.555 388.624 179.359 388.78C179.163 388.936 178.915 389.01 178.666 388.985Z" fill="#D1D3D4"/>
<path d="M201.431 245.397C201.163 245.399 200.903 245.3 200.704 245.119C200.604 245.021 200.525 244.904 200.471 244.776C200.417 244.647 200.389 244.509 200.389 244.369C200.389 244.229 200.417 244.091 200.471 243.963C200.525 243.834 200.604 243.717 200.704 243.619C204.17 239.786 207.979 235.439 208.342 234.775C208.386 234.644 208.455 234.524 208.545 234.421C208.636 234.317 208.746 234.233 208.87 234.173C208.994 234.113 209.128 234.079 209.265 234.072C209.403 234.065 209.54 234.085 209.669 234.133C209.939 234.238 210.159 234.444 210.282 234.707C210.405 234.97 210.423 235.27 210.332 235.546C207.892 238.913 205.203 242.091 202.287 245.054C202.179 245.172 202.046 245.263 201.898 245.323C201.75 245.382 201.591 245.407 201.431 245.397Z" fill="#D1D3D4"/>
<path d="M460.776 250.837C460.537 250.841 460.304 250.766 460.113 250.622C459.896 250.439 459.757 250.179 459.725 249.896C459.693 249.613 459.771 249.329 459.942 249.102L472.202 233.662C472.378 233.441 472.635 233.299 472.915 233.267C473.196 233.235 473.478 233.315 473.699 233.49C473.811 233.576 473.904 233.683 473.973 233.806C474.043 233.928 474.087 234.064 474.103 234.203C474.119 234.343 474.106 234.485 474.066 234.62C474.027 234.755 473.96 234.881 473.871 234.989L461.61 250.451C461.511 250.576 461.384 250.676 461.239 250.742C461.094 250.809 460.936 250.842 460.776 250.837Z" fill="#D1D3D4"/>
<path d="M425.793 244.54C425.553 244.534 425.32 244.452 425.13 244.305C424.909 244.128 424.768 243.871 424.736 243.591C424.704 243.31 424.784 243.028 424.959 242.806L431.099 235.011C431.185 234.899 431.292 234.806 431.415 234.736C431.537 234.667 431.672 234.623 431.812 234.607C431.952 234.591 432.093 234.603 432.228 234.643C432.363 234.683 432.489 234.75 432.597 234.839C432.818 235.016 432.959 235.273 432.991 235.553C433.023 235.834 432.943 236.116 432.768 236.338L426.649 244.133C426.544 244.259 426.413 244.36 426.266 244.431C426.118 244.501 425.957 244.538 425.793 244.54Z" fill="#D1D3D4"/>
<path d="M233.419 190.531C233.255 190.529 233.094 190.492 232.946 190.422C232.799 190.351 232.668 190.25 232.563 190.125C232.39 189.9 232.314 189.616 232.35 189.335C232.386 189.054 232.532 188.799 232.756 188.625L289.306 144.467C289.416 144.371 289.544 144.298 289.683 144.254C289.822 144.209 289.969 144.193 290.114 144.207C290.26 144.221 290.401 144.265 290.529 144.336C290.656 144.407 290.768 144.503 290.858 144.619C290.947 144.734 291.012 144.867 291.048 145.009C291.084 145.15 291.09 145.298 291.067 145.442C291.044 145.587 290.992 145.725 290.913 145.848C290.835 145.971 290.732 146.077 290.611 146.159L234.061 190.296C233.883 190.45 233.654 190.534 233.419 190.531Z" fill="#D1D3D4"/>
<path d="M379.449 185.777C379.231 185.775 379.019 185.706 378.841 185.58C378.663 185.455 378.528 185.277 378.454 185.072C378.379 184.868 378.369 184.645 378.425 184.434C378.48 184.223 378.598 184.034 378.764 183.893L409.382 158.195C409.489 158.103 409.613 158.034 409.746 157.99C409.88 157.947 410.021 157.93 410.161 157.941C410.301 157.952 410.437 157.99 410.563 158.054C410.688 158.118 410.799 158.205 410.89 158.312C410.982 158.419 411.051 158.543 411.095 158.677C411.138 158.81 411.155 158.951 411.144 159.092C411.133 159.232 411.095 159.368 411.031 159.494C410.967 159.619 410.88 159.731 410.773 159.822L380.133 185.627C379.926 185.747 379.687 185.799 379.449 185.777Z" fill="#D1D3D4"/>
<path d="M317.742 191.516H318.811C320.764 191.516 322.636 192.293 324.016 193.674C325.396 195.056 326.172 196.929 326.172 198.883V206.272H310.446V198.883C310.445 196.941 311.212 195.076 312.579 193.697C313.945 192.317 315.801 191.533 317.742 191.516Z" fill="#231F20"/>
<path d="M326.108 207.321H310.381C310.098 207.321 309.825 207.208 309.625 207.007C309.424 206.806 309.311 206.534 309.311 206.25V198.883C309.339 196.652 310.235 194.52 311.81 192.94C313.384 191.36 315.513 190.458 317.742 190.424H318.811C321.063 190.424 323.224 191.312 324.826 192.895C326.428 194.479 327.342 196.63 327.37 198.883V206.25C327.373 206.409 327.34 206.566 327.275 206.71C327.209 206.854 327.113 206.982 326.992 207.084C326.871 207.187 326.729 207.261 326.576 207.302C326.423 207.343 326.263 207.349 326.108 207.321ZM311.451 205.179H325.038V198.883C325.01 197.198 324.321 195.591 323.12 194.41C321.92 193.228 320.303 192.566 318.619 192.566H317.635C315.973 192.599 314.389 193.276 313.216 194.454C312.042 195.632 311.372 197.22 311.344 198.883L311.451 205.179Z" fill="#231F20"/>
<path d="M377.844 201.839H377.694L316.672 198.155C316.108 198.117 315.582 197.856 315.209 197.431C314.836 197.006 314.647 196.45 314.682 195.885C314.698 195.604 314.77 195.328 314.893 195.075C315.016 194.821 315.188 194.594 315.398 194.407C315.609 194.22 315.855 194.077 316.121 193.985C316.387 193.893 316.669 193.855 316.95 193.872L377.887 197.556C378.168 197.564 378.444 197.628 378.701 197.743C378.957 197.859 379.188 198.023 379.381 198.228C379.574 198.433 379.724 198.674 379.824 198.937C379.924 199.2 379.971 199.48 379.962 199.761C379.954 200.043 379.89 200.319 379.775 200.576C379.659 200.833 379.495 201.064 379.29 201.257C379.085 201.45 378.845 201.6 378.582 201.7C378.319 201.8 378.039 201.847 377.758 201.839H377.844Z" fill="#231F20"/>
<path d="M393.934 199.997H393.699L374.442 198.155C373.877 198.101 373.357 197.825 372.996 197.387C372.635 196.949 372.463 196.386 372.516 195.821C372.57 195.256 372.847 194.736 373.284 194.374C373.721 194.013 374.284 193.84 374.848 193.894L394.105 195.735C394.673 195.764 395.206 196.017 395.587 196.438C395.968 196.86 396.166 197.416 396.138 197.984C396.109 198.552 395.857 199.085 395.435 199.467C395.014 199.848 394.459 200.047 393.891 200.018L393.934 199.997Z" fill="#231F20"/>
<path d="M316.907 172.885C316.738 172.887 316.57 172.849 316.418 172.775C316.266 172.701 316.133 172.592 316.03 172.457C315.867 172.225 315.801 171.94 315.845 171.66C315.889 171.38 316.04 171.129 316.265 170.958C325.872 163.891 341.513 152.091 342.54 150.549C342.585 150.421 342.655 150.303 342.748 150.203C342.84 150.103 342.952 150.024 343.077 149.969C343.201 149.915 343.336 149.887 343.472 149.888C343.608 149.888 343.742 149.916 343.867 149.971C344.136 150.077 344.354 150.284 344.474 150.547C344.594 150.811 344.606 151.112 344.508 151.385C343.952 152.991 329.531 163.848 317.528 172.671C317.351 172.812 317.132 172.887 316.907 172.885Z" fill="#D1D3D4"/>
<path d="M206.31 185.777C206.144 185.791 205.977 185.768 205.821 185.708C205.666 185.649 205.526 185.555 205.411 185.435C205.23 185.215 205.142 184.932 205.166 184.648C205.19 184.364 205.324 184.101 205.539 183.914L225.631 166.911C225.728 166.811 225.845 166.732 225.973 166.678C226.102 166.624 226.24 166.596 226.379 166.596C226.519 166.596 226.657 166.624 226.786 166.678C226.914 166.732 227.031 166.811 227.128 166.911C227.309 167.131 227.397 167.413 227.373 167.697C227.349 167.981 227.215 168.245 227 168.431L206.93 185.563C206.747 185.69 206.532 185.764 206.31 185.777Z" fill="#D1D3D4"/>
</g>
<defs>
<linearGradient id="paint0_linear" x1="329.961" y1="422.191" x2="324.577" y2="-149.517" gradientUnits="userSpaceOnUse">
<stop stop-color="white"/>
<stop offset="1" stop-color="#EEEEEE"/>
</linearGradient>
<clipPath id="clip0">
<rect width="634.82" height="404.575" fill="white" transform="translate(0.589783)"/>
</clipPath>
<clipPath id="clip1">
<rect width="381.55" height="320.699" fill="white" transform="translate(127.225 114.301)"/>
</clipPath>
</defs>
</svg>
