<svg width="100" height="61" viewBox="0 0 100 61" fill="none" xmlns="http://www.w3.org/2000/svg">
<path fill-rule="evenodd" clip-rule="evenodd" d="M1.42863 46.1213C3.88195 46.1397 6.33757 46.1282 8.79089 46.1213C15.1799 46.1064 16.4611 56.061 6.23185 55.3796L6.18244 51.9403L1.06091 51.9978L1.10458 60.1564C4.88281 60.3942 10.996 60.6781 13.7355 59.1877C20.8438 55.3221 20.4542 45.6214 13.932 42.2523C10.8294 40.6435 5.19882 41.2434 1.40679 41.233L1.42863 46.1213Z" fill="white"/>
<path fill-rule="evenodd" clip-rule="evenodd" d="M22.0216 50.8004C22.2009 51.4715 26.0193 55.3577 26.2583 55.4612C28.013 55.3704 28.1922 55.3853 28.5967 55.4209C29.0426 55.4612 29.3551 56.3402 31.8039 60.2092H37.2356C36.3899 58.2006 35.1339 56.5666 34.3801 54.4637C35.2707 52.7677 36.9805 52.1311 37.2242 49.1802C37.6723 43.6645 34.3951 41.2296 29.2425 41.2353C26.7145 41.2353 24.0716 41.1595 21.4861 41.2664V46.1064C26.7949 46.3189 32.1624 45.0136 32.0992 48.2896C32.0291 51.9484 27.3752 50.435 22.0204 50.8039" fill="white"/>
<path fill-rule="evenodd" clip-rule="evenodd" d="M56.9507 60.1678C57.3678 59.6887 64.6026 42.1086 64.6497 41.2387L59.1432 41.2652C58.032 43.3761 56.9243 47.0601 55.9545 49.4881C55.8694 49.6459 55.7626 49.7909 55.6373 49.919C54.9904 48.3586 52.7588 41.4938 51.6407 41.279C50.5767 41.0733 48.4233 41.2399 47.25 41.2502C47.2443 42.751 52.8438 57.3008 53.8769 60.1851L56.9507 60.1678Z" fill="white"/>
<path fill-rule="evenodd" clip-rule="evenodd" d="M75.1214 53.063C75.0674 50.9291 75.0708 49.9397 75.0593 48.5815L71.6626 48.4321L71.735 46.3235L79.6454 46.289L79.5672 41.4088L66.8927 41.4536L66.9444 53.0595L75.1214 53.063Z" fill="white"/>
<path fill-rule="evenodd" clip-rule="evenodd" d="M45.2954 41.2962L40.8576 41.2502L40.8564 60.0644L45.2943 60.0656L45.2954 41.2962Z" fill="white"/>
<path fill-rule="evenodd" clip-rule="evenodd" d="M83.4547 51.1439C83.6339 51.815 87.4524 55.7013 87.6914 55.8058C89.4461 55.7139 89.6253 55.7288 90.0286 55.7645C90.4745 55.8047 90.7882 56.6837 93.2369 60.5527H98.6676C97.8218 58.5441 96.5659 56.9101 95.8132 54.8073C96.6992 53.1192 98.4136 52.4803 98.6538 49.5318C99.1019 44.0161 95.8247 41.5811 90.6721 41.5869C88.1441 41.5869 85.5012 41.5122 82.9146 41.6179V46.4579C88.2246 46.6705 93.592 45.3651 93.5288 48.6412C93.4587 52.2999 88.8049 50.7866 83.4501 51.1554" fill="white"/>
<path d="M79.6373 56.2196H66.8134V59.7853H79.6373V56.2196Z" fill="#0C7E7E"/>
<path d="M79.6373 56.2196H66.8134V59.7853H79.6373V56.2196Z" stroke="#0C7E7E" stroke-width="0.57" stroke-miterlimit="22.93"/>
<path fill-rule="evenodd" clip-rule="evenodd" d="M17.0736 13.2158L10.9834 13.3307C10.0744 12.8998 10.5237 11.2462 10.5237 9.93508C12.9805 9.73169 23.89 10.3844 25.0024 9.71561C25.3471 9.38467 25.2322 1.91553 25.1793 0.834229C19.7625 0.893982 13.0207 0.890534 10.1043 0.916964C-0.0824516 1.00889 1.39759 0.0298597 1.33668 3.6024L1.31715 21.0135C1.30221 21.9845 1.14938 22.2615 1.78368 22.489C2.04683 22.5844 15.8935 22.5717 17.0667 22.4786L17.0736 13.2158Z" fill="white"/>
<path fill-rule="evenodd" clip-rule="evenodd" d="M60.1866 30.4626C59.9706 29.3238 56.8209 26.258 55.8855 25.1492C53.2713 22.0466 53.8677 24.3276 50.7893 25.8041C45.8171 28.1897 37.94 24.7389 38.5732 17.071C38.8145 14.1408 40.4451 14.5372 36.2991 9.07788L33.8585 5.66736C32.9633 6.15802 32.4152 7.337 31.8406 8.17814C31.2867 9.12648 30.7976 10.1112 30.3767 11.1256C22.9891 28.3448 45.9918 45.8582 60.1866 30.4626Z" fill="#0C7E7E"/>
<path d="M60.1866 30.4626C59.9706 29.3238 56.8209 26.258 55.8855 25.1492C53.2713 22.0466 53.8677 24.3276 50.7893 25.8041C45.8171 28.1897 37.94 24.7389 38.5732 17.071C38.8145 14.1408 40.4451 14.5372 36.2991 9.07788L33.8585 5.66736C32.9633 6.15802 32.4152 7.337 31.8406 8.17814C31.2867 9.12648 30.7976 10.1112 30.3767 11.1256C22.9891 28.3448 45.9918 45.8582 60.1866 30.4626Z" stroke="#0C7E7E" stroke-width="0.57" stroke-miterlimit="22.93"/>
<path fill-rule="evenodd" clip-rule="evenodd" d="M79.4891 9.87076C94.8525 11.2876 91.9327 25.3571 80.1671 26.851C80.2624 29.1113 86.9261 32.3379 89.2013 32.9791C91.1892 33.5387 91.9694 32.716 93.0668 31.8518C101.592 23.3083 101.278 11.0187 92.1809 4.02415C87.8189 0.665337 79.3547 7.55418 79.4891 9.87076Z" fill="#0C7E7E"/>
<path d="M79.4891 9.87076C94.8525 11.2876 91.9327 25.3571 80.1671 26.851C80.2624 29.1113 86.9261 32.3379 89.2013 32.9791C91.1892 33.5387 91.9694 32.716 93.0668 31.8518C101.592 23.3083 101.278 11.0187 92.1809 4.02415C87.8189 0.665337 79.3547 7.55418 79.4891 9.87076Z" stroke="#0C7E7E" stroke-width="0.57" stroke-miterlimit="22.93"/>
<path fill-rule="evenodd" clip-rule="evenodd" d="M84.1866 35.9495C83.9361 35.2601 81.5012 33.903 80.2533 32.8826C69.9367 24.4402 69.3 10.5625 80.0556 2.07986C80.4003 1.80867 82.0194 0.836538 82.1136 0.664174C65.0725 -1.76157 55.7901 21.1055 69.4368 32.0437C73.0633 34.9487 80.2992 37.302 84.1866 35.9507" fill="white"/>
<path fill-rule="evenodd" clip-rule="evenodd" d="M1.03447 35.206L25.1425 35.1669C25.2103 31.4829 24.9955 28.5194 24.8288 26.3074C22.4674 26.1592 2.04568 26.119 1 26.4327L1.03447 35.206Z" fill="#0C7E7E"/>
<path d="M1.03447 35.206L25.1425 35.1669C25.2103 31.4829 24.9955 28.5194 24.8288 26.3074C22.4674 26.1592 2.04568 26.119 1 26.4327L1.03447 35.206Z" stroke="#0C7E7E" stroke-width="0.57" stroke-miterlimit="22.93"/>
<path fill-rule="evenodd" clip-rule="evenodd" d="M40.9013 1.18008C41.0713 2.37629 45.4172 8.35734 46.1067 9.56849C50.4422 9.99711 49.6689 9.88449 53.4368 12.2539C54.3147 11.6886 57.4977 8.08501 58.0768 7.37716C59.473 5.67075 60.9151 4.86638 56.706 2.32113C52.6221 -0.152874 45.8286 -0.831991 40.9013 1.18008Z" fill="white"/>
</svg>
