<svg width="120" height="98" viewBox="0 0 120 98" fill="none" xmlns="http://www.w3.org/2000/svg">
<g clip-path="url(#clip0)">
<path d="M41.5994 0.0862506C40.6469 0.400092 39.9643 1.39192 40.014 2.39391V13.9322H26.1778C25.9395 13.8861 25.6954 13.8861 25.4572 13.9322C24.7594 14.186 24.203 14.7992 24.0159 15.5187L15.9448 39.6049L11.621 35.278C11.2121 34.8442 10.6304 34.58 10.0356 34.5569C8.15636 34.5061 7.03997 37.351 8.45016 38.5953L13.7829 43.9318L1.53206 56.1912C1.06487 56.6343 0.796301 57.2781 0.81142 57.922V80.9985C0.81154 82.2064 1.91005 83.3057 3.11745 83.3062H10.0356V90.0849C10.0356 93.8806 13.1609 97.0079 16.9537 97.0079H26.1778C29.9706 97.0079 33.0959 93.8806 33.0959 90.0849V83.3062H88.4407V90.0849C88.4407 93.8806 91.5661 97.0079 95.3588 97.0079H104.583C108.376 97.0079 111.501 93.8806 111.501 90.0849V83.3062H118.419C119.627 83.3057 120.725 82.2064 120.725 80.9985V57.922C120.74 57.2781 120.472 56.6334 120.005 56.1912L107.754 43.9318L113.086 38.5953C114.497 37.351 113.38 34.5075 111.501 34.5569C110.906 34.6031 110.324 34.8433 109.916 35.278L105.592 39.6049L97.5207 15.5187C97.2227 14.6118 96.3124 13.9442 95.3588 13.9322H81.5226V2.39391C81.5225 1.18562 80.424 0.0862506 79.2166 0.0862506H42.32C42.0818 0.0400974 41.8376 0.0400974 41.5994 0.0862506ZM44.6261 4.70157H76.9105V13.9322H44.6261V4.70157ZM27.7632 18.5475H93.7734L101.412 41.6241H20.1245L27.7632 18.5475ZM18.1067 46.2394H103.718L116.113 58.7873V78.6909H109.772H108.763H91.1791H90.1702H83.8286C83.842 78.5478 83.842 78.4013 83.8286 78.2582C83.8286 73.2478 79.6445 69.316 74.6045 69.316H46.9321C41.8922 69.316 37.708 73.2478 37.708 78.2582C37.6946 78.4013 37.6946 78.5478 37.708 78.6909H31.6546H31.3664H30.3575H30.0692H13.2064H12.774H11.7651H11.621H5.42349V58.7873L18.1067 46.2394ZM18.1067 60.0854C16.1904 60.0854 14.6476 61.1146 14.6476 62.393C14.6476 63.6715 16.1904 64.7007 18.1067 64.7007H25.0248C26.9411 64.7007 28.4838 63.6715 28.4838 62.393C28.4838 61.1146 26.9411 60.0854 25.0248 60.0854H18.1067ZM44.6261 60.0854C43.3485 60.0854 42.32 61.1146 42.32 62.393C42.32 63.6715 43.3485 64.7007 44.6261 64.7007H76.9105C78.1881 64.7007 79.2166 63.6715 79.2166 62.393C79.2166 61.1146 78.1881 60.0854 76.9105 60.0854H44.6261ZM96.5118 60.0854C94.5955 60.0854 93.0528 61.1146 93.0528 62.393C93.0528 63.6715 94.5955 64.7007 96.5118 64.7007H103.43C105.346 64.7007 106.889 63.6715 106.889 62.393C106.889 61.1146 105.346 60.0854 103.43 60.0854H96.5118ZM14.6476 69.316V73.9313H28.4838V69.316H14.6476ZM93.0528 69.316V73.9313H106.889V69.316H93.0528ZM46.9321 73.9313H74.6045C77.2298 73.9313 79.2166 75.7872 79.2166 78.2582C79.2032 78.4013 79.2032 78.5478 79.2166 78.6909H42.32C42.3334 78.5478 42.3334 78.4013 42.32 78.2582C42.32 75.7872 44.3068 73.9313 46.9321 73.9313ZM14.6476 83.3062H28.4838V90.0849C28.4838 91.4031 27.4953 92.3926 26.1778 92.3926H16.9537C15.6362 92.3926 14.6476 91.4031 14.6476 90.0849V83.3062ZM93.0528 83.3062H106.889V90.0849C106.889 91.4031 105.9 92.3926 104.583 92.3926H95.3588C94.0413 92.3926 93.0528 91.4031 93.0528 90.0849V83.3062Z" fill="url(#paint0_linear)"/>
</g>
<defs>
<linearGradient id="paint0_linear" x1="0.809385" y1="48.5297" x2="109.44" y2="48.5297" gradientUnits="userSpaceOnUse">
<stop stop-color="#0C7E7E"/>
<stop offset="1" stop-color="#1A9452"/>
</linearGradient>
<clipPath id="clip0">
<rect width="120" height="98" fill="white"/>
</clipPath>
</defs>
</svg>
