<svg width="180" height="143" viewBox="0 0 180 143" fill="none" xmlns="http://www.w3.org/2000/svg">
<path d="M10.8 0C4.87716 0 1.224e-05 4.8454 0 10.725C1.224e-05 16.6053 4.87716 21.45 10.8 21.45C14.3664 21.45 17.5318 19.6772 19.5047 16.9952L19.0406 18.0565L32.2453 23.7263L35.1141 17.1768L21.8953 11.4791L21.4031 12.6103C21.5153 11.9958 21.6 11.3693 21.6 10.725C21.6 4.8454 16.7228 0 10.8 0ZM10.8 7.15C12.83 7.15 14.4 8.70802 14.4 10.725C14.4 12.7426 12.83 14.3 10.8 14.3C8.76995 14.3 7.2 12.7426 7.2 10.725C7.2 8.70802 8.76995 7.15 10.8 7.15ZM93.6 10.725C77.8006 10.725 64.8 23.1418 64.8 38.5011C64.8 42.9572 66.6628 47.4484 69.1594 52.0889C71.656 56.7287 74.8984 61.4569 78.1172 65.7325C78.6795 66.4795 79.1065 66.9148 79.6641 67.6317C77.108 69.0291 75.0385 70.8341 73.6594 73.0501C71.7786 76.0723 71.4682 80.0297 73.1531 83.3562C76.5225 90.0097 84.9607 93.0503 93.9797 92.95C102.372 92.8591 110.1 90.0091 113.555 84.1242L112.823 86.0514L119.644 88.579L121.106 92.2378L127.8 89.5705L125.747 84.4733L125.156 83.007L123.652 82.4484L115.369 79.3622L115.059 80.1582C115.433 77.4777 114.73 74.7182 113.203 72.5194C111.829 70.5405 109.865 68.9419 107.522 67.6597C108.086 66.9342 108.513 66.4888 109.083 65.7325C112.302 61.4569 115.544 56.7287 118.041 52.0889C120.537 47.4484 122.4 42.9572 122.4 38.5011C122.4 23.1418 109.399 10.725 93.6 10.725ZM93.6 17.875C105.636 17.875 115.2 27.1373 115.2 38.5011C115.2 40.7265 113.913 44.5673 111.684 48.7094C109.456 52.8508 106.398 57.3521 103.317 61.4453C98.4713 67.8826 95.4554 71.0314 93.6 73.0641C91.7464 71.0334 88.7308 67.8852 83.8828 61.4453C80.8016 57.3521 77.744 52.8508 75.5156 48.7094C73.2872 44.5673 72 40.7265 72 38.5011C72 27.1367 81.5642 17.875 93.6 17.875ZM41.5969 23.3353L35.5922 27.2873L43.5797 39.1854L49.5844 35.2333L41.5969 23.3353ZM93.6 26.8544C87.6772 26.8544 82.8 31.6991 82.8 37.5794C82.8 43.4596 87.6772 48.3044 93.6 48.3044C99.5228 48.3044 104.4 43.4596 104.4 37.5794C104.4 31.6991 99.5228 26.8544 93.6 26.8544ZM93.6 34.0044C95.63 34.0044 97.2 35.5618 97.2 37.5794C97.2 39.597 95.63 41.1544 93.6 41.1544C91.57 41.1544 90 39.597 90 37.5794C90 35.5618 91.57 34.0044 93.6 34.0044ZM53.5641 41.1684L47.5734 45.1344L55.5609 57.0324L61.5656 53.0664L53.5641 41.1684ZM65.5453 59.0154L59.5547 62.9814L61.8047 66.333L62.4516 67.2966L63.5344 67.7016L73.2234 71.3045L75.7547 64.6014L67.1484 61.4174L65.5453 59.0154ZM84.3469 73.3992C87.9894 77.7349 90.9563 81.0799 90.9562 81.0799C91.2932 81.4396 91.7013 81.7265 92.155 81.9227C92.6086 82.1189 93.0981 82.2201 93.593 82.2201C94.0878 82.2201 94.5773 82.1189 95.031 81.9227C95.4846 81.7265 95.8927 81.4396 96.2297 81.0799C96.2297 81.0799 99.1907 77.7471 102.825 73.4271C104.934 74.3923 106.539 75.5325 107.269 76.5832C108.159 77.8647 108.262 78.6983 107.719 79.9348C106.633 82.4091 100.998 85.7212 93.8953 85.8C86.7925 85.8782 80.8683 82.6889 79.5797 80.1442C78.9352 78.8719 79.0104 78.0468 79.7906 76.7927C80.4748 75.6934 82.075 74.4336 84.3469 73.3992ZM130.472 96.2178L123.792 98.8571L129.136 112.152L135.816 109.484L130.472 96.2178ZM138.487 116.132L131.808 118.771L133.467 122.877L134.016 124.273L135.408 124.846L144.605 128.644L147.375 122.053L139.57 118.827L138.487 116.132ZM169.2 121.55C165.145 121.55 161.621 123.844 159.778 127.164L154.027 124.79L151.256 131.395L158.625 134.44C159.643 139.3 164.022 143 169.2 143C175.123 143 180 138.155 180 132.275C180 126.395 175.123 121.55 169.2 121.55ZM169.2 128.7C171.23 128.7 172.8 130.257 172.8 132.275C172.8 134.292 171.23 135.85 169.2 135.85C167.17 135.85 165.6 134.292 165.6 132.275C165.6 130.257 167.17 128.7 169.2 128.7Z" fill="#333333"/>
</svg>
