<svg width="123" height="120" viewBox="0 0 123 120" fill="none" xmlns="http://www.w3.org/2000/svg">
<path fill-rule="evenodd" clip-rule="evenodd" d="M61.4704 7.67078e-05C61.4578 0.00247097 61.4453 0.00499099 61.4329 0.0076362C61.3345 0.0126594 61.2367 0.0252957 61.1403 0.0454336C61.1102 0.049754 61.0802 0.0547952 61.0503 0.0605526C61.0353 0.0654053 61.0203 0.0704455 61.0053 0.0756716C60.9598 0.0891042 60.9148 0.104233 60.8703 0.121029C60.8553 0.125881 60.8403 0.130921 60.8253 0.136148C60.8 0.148195 60.775 0.160797 60.7503 0.173945C60.7174 0.188145 60.6849 0.20327 60.6528 0.219302L31.4308 12.8739C31.0151 12.9488 30.6355 13.1598 30.3508 13.4741C30.066 13.7884 29.892 14.1885 29.8557 14.6126C29.853 14.6277 29.8505 14.6428 29.8482 14.6579C29.8482 14.663 29.8482 14.668 29.8482 14.673C29.8364 14.7962 29.8364 14.9203 29.8482 15.0435V52.2513L1.63875 64.475C1.38201 64.5208 1.13721 64.6188 0.919285 64.763C0.701357 64.9073 0.514859 65.0948 0.37116 65.3141C0.360949 65.329 0.350947 65.3442 0.341158 65.3594C0.338651 65.3619 0.336151 65.3644 0.333658 65.367C0.331151 65.3695 0.32865 65.372 0.326157 65.3745C0.17987 65.5941 0.0797723 65.8415 0.0320414 66.1015C-0.0156896 66.3615 -0.0100411 66.6287 0.0486381 66.8864V105.115C0.0485942 105.122 0.0485942 105.13 0.0486381 105.137C0.0485942 105.145 0.0485942 105.153 0.0486381 105.16C0.0493718 105.208 0.0518737 105.256 0.0561386 105.304C0.0836763 105.661 0.209042 106.003 0.418275 106.293C0.627509 106.583 0.912398 106.808 1.24122 106.944L30.6057 119.659C30.9363 119.888 31.3297 120.007 31.7308 119.999C32.1311 120.009 32.5244 119.893 32.8559 119.667L61.5004 107.262L90.1373 119.659C90.4679 119.888 90.8613 120.007 91.2624 119.999C91.6627 120.009 92.056 119.893 92.3875 119.667L121.759 106.944C122.133 106.791 122.45 106.523 122.664 106.178C122.878 105.834 122.979 105.43 122.952 105.024V66.8789C123.013 66.6088 123.016 66.3286 122.96 66.0574C122.905 65.7861 122.792 65.5301 122.63 65.3065C122.486 65.0917 122.301 64.9081 122.086 64.7665C121.871 64.625 121.63 64.5284 121.377 64.4825L93.22 52.2815V15.0057C93.2303 14.8772 93.2278 14.7481 93.2125 14.6201C93.1762 14.1961 93.0022 13.7959 92.7175 13.4816C92.4327 13.1673 92.0531 12.9564 91.6374 12.8814L62.3929 0.204183C62.1952 0.105158 61.9821 0.0412256 61.7629 0.0151957C61.7279 0.0117092 61.6929 0.00918841 61.6579 0.0076362C61.5955 0.00203796 61.533 -0.000484942 61.4704 7.67078e-05V7.67078e-05ZM61.5304 4.05196L66.1507 6.05523L41.234 16.8426L36.6287 14.8469L61.5304 4.05196ZM71.011 8.15676L76.9664 10.7346L51.3822 21.8243C50.9338 21.9968 50.5658 22.3323 50.3507 22.7646C50.1355 23.197 50.0887 23.6949 50.2196 24.1602V35.5146L48.6445 33.1258C48.3848 32.7323 47.9912 32.4483 47.538 32.3271C47.0848 32.206 46.6033 32.2561 46.1843 32.4681L43.8742 33.6398V19.9193L71.011 8.15676ZM81.8268 12.8436L86.4396 14.8394L61.5304 25.6343L56.9101 23.6386L81.8268 12.8436ZM33.6885 17.7876L40.0339 20.5316V36.777C40.0336 37.1074 40.1172 37.4324 40.2768 37.721C40.4364 38.0096 40.6666 38.2522 40.9456 38.4258C41.2245 38.5993 41.5429 38.698 41.8704 38.7124C42.1979 38.7268 42.5237 38.6565 42.8166 38.5081L46.3868 36.6938L50.4221 42.8246C50.6036 43.1916 50.8961 43.4911 51.2573 43.6798C51.6186 43.8685 52.03 43.9366 52.4322 43.8744C52.8344 43.8121 53.2066 43.6227 53.4951 43.3335C53.7836 43.0443 53.9735 42.6702 54.0373 42.2652C54.0399 42.2551 54.0424 42.245 54.0448 42.2349C54.0522 42.1797 54.0572 42.1243 54.0599 42.0686C54.0599 42.0586 54.0599 42.0485 54.0599 42.0384C54.0629 41.9754 54.0629 41.9124 54.0599 41.8494V26.6095L59.6102 29.021V63.5073L33.6885 52.2815V17.7876ZM89.3798 17.7876V52.2513L63.4505 63.4847V29.021L89.3798 17.7876ZM31.7308 55.6455L36.3511 57.6487L11.4344 68.4437L6.8216 66.4404L31.7308 55.6455ZM91.2999 55.6606L95.8827 57.6487L70.966 68.4437L66.3832 66.4555L91.2999 55.6606ZM41.219 59.7578L47.1669 62.3356L21.5826 73.4178C21.2135 73.5781 20.9035 73.8511 20.6963 74.1982C20.4891 74.5454 20.3951 74.9493 20.4275 75.3531C20.4263 75.3934 20.4263 75.4337 20.4275 75.474V87.1232L18.8524 84.7268C18.5927 84.3334 18.1992 84.0493 17.746 83.9282C17.2928 83.807 16.8113 83.8572 16.3923 84.0691L14.0746 85.2409V71.5128L41.219 59.7578ZM100.751 59.7578L106.706 62.3356L81.1142 73.4178C80.7513 73.5744 80.4451 73.8398 80.237 74.1779C80.029 74.516 79.9294 74.9105 79.9516 75.3077C79.9493 75.3631 79.9493 75.4186 79.9516 75.474V87.1156L78.3765 84.7268C78.1168 84.3334 77.7232 84.0493 77.2701 83.9282C76.8169 83.807 76.3354 83.8572 75.9163 84.0691L73.6062 85.2409V71.5128L100.751 59.7578ZM52.0272 64.4372L56.6475 66.4404L31.7383 77.2354L27.1255 75.2321L52.0272 64.4372ZM111.559 64.4372L116.179 66.4404L91.2699 77.2354L86.6496 75.2321L111.559 64.4372ZM3.8889 69.3811L10.2343 72.1327V88.3781C10.2353 88.7078 10.3199 89.0319 10.48 89.3194C10.6401 89.607 10.8704 89.8486 11.1492 90.0213C11.428 90.1939 11.7459 90.2919 12.0728 90.306C12.3996 90.3201 12.7247 90.2497 13.017 90.1016L16.5948 88.2949L20.7426 94.6071C20.97 94.9559 21.3032 95.2214 21.6925 95.3637C22.0819 95.5061 22.5064 95.5178 22.9029 95.3971C23.2994 95.2764 23.6465 95.0297 23.8925 94.6939C24.1384 94.358 24.2701 93.951 24.2678 93.5336V78.2105L29.8182 80.6145V115.108L3.8889 103.875V69.3811ZM63.4205 69.3811L69.7659 72.1327V88.3781C69.7669 88.7078 69.8514 89.0319 70.0116 89.3194C70.1717 89.607 70.402 89.8486 70.6808 90.0213C70.9595 90.1939 71.2775 90.2919 71.6043 90.306C71.9312 90.3201 72.2563 90.2497 72.5486 90.1016L76.1189 88.2949L80.1691 94.4483C80.3496 94.7955 80.6303 95.0792 80.9742 95.2621C81.3181 95.4449 81.7089 95.5183 82.0951 95.4724C82.4812 95.4265 82.8444 95.2636 83.1367 95.0051C83.429 94.7467 83.6365 94.4049 83.7319 94.025C83.743 93.9875 83.753 93.9497 83.7619 93.9116C83.7646 93.894 83.7671 93.8764 83.7694 93.8587C83.7802 93.7936 83.7877 93.728 83.7919 93.6621C83.7919 93.6571 83.7919 93.6521 83.7919 93.647C83.7952 93.5815 83.7952 93.5159 83.7919 93.4505V78.2105L89.3423 80.6145V115.108L63.4205 103.875V69.3811ZM119.112 69.3811V103.875L93.1825 115.108V80.6145L119.112 69.3811ZM59.5802 69.3886V103.875L33.6584 115.108V80.6145L59.5802 69.3886ZM106.038 93.5185C105.8 93.5303 105.566 93.5867 105.348 93.6848L97.9229 96.8976C97.6908 96.9978 97.4807 97.1431 97.3044 97.3252C97.1281 97.5073 96.9891 97.7226 96.8954 97.9589C96.8017 98.1951 96.7551 98.4476 96.7582 98.702C96.7613 98.9564 96.8141 99.2077 96.9136 99.4415C97.0131 99.6754 97.1574 99.8871 97.3381 100.065C97.5188 100.242 97.7325 100.382 97.9669 100.477C98.2013 100.571 98.4518 100.618 98.7043 100.615C98.9567 100.612 99.206 100.558 99.438 100.458L106.863 97.2378C107.28 97.0625 107.621 96.7452 107.828 96.3415C108.036 95.9377 108.095 95.4734 107.997 95.0298C107.899 94.5862 107.648 94.1916 107.29 93.9153C106.932 93.639 106.489 93.4985 106.038 93.5185V93.5185ZM111.184 99.3318V99.3393C110.946 99.3487 110.712 99.4025 110.494 99.4981L97.9379 104.752C97.4665 104.949 97.0923 105.328 96.8976 105.803C96.7029 106.279 96.7035 106.813 96.8994 107.288C97.0953 107.763 97.4705 108.14 97.9423 108.337C98.4141 108.533 98.944 108.532 99.4155 108.335L111.971 103.059C112.389 102.887 112.733 102.573 112.944 102.172C113.155 101.771 113.219 101.307 113.125 100.863C113.031 100.419 112.785 100.022 112.43 99.7419C112.076 99.462 111.634 99.3168 111.184 99.3318Z" fill="url(#paint0_linear)"/>
<defs>
<linearGradient id="paint0_linear" x1="-0.00146531" y1="59.9999" x2="111.424" y2="59.9999" gradientUnits="userSpaceOnUse">
<stop stop-color="#0C7E7E"/>
<stop offset="1" stop-color="#1A9452"/>
</linearGradient>
</defs>
</svg>
